<svg width="31" height="30" viewBox="0 0 31 30" fill="none" xmlns="http://www.w3.org/2000/svg">
<g clip-path="url(#clip0_2_113)">
<path d="M0 0.000183105H30V16.1951L28.5151 18.5153L30 20.5802V30.0002H0V14.7334L0.928074 13.6661L0 12.6452V0.000183105Z" fill="#A5A5A5"/>
<path d="M5.82332 20.905V16.195H10.8103L11.3454 16.8925L11.8981 16.195H29.9997V20.5802C29.9997 20.5802 29.5263 20.9003 28.9788 20.905H18.9556L18.3523 20.1626V20.905H16.3755V19.6376C16.3755 19.6376 16.1055 19.8145 15.5217 19.8145H14.8488V20.905H11.8558L11.3215 20.1926L10.779 20.905H5.82332Z" fill="white"/>
<path d="M0 12.645L1.12459 10.0232H3.06944L3.70766 11.4918V10.0232H6.12529L6.50522 11.0847L6.87355 10.0232H17.7262V10.5568C17.7262 10.5568 18.2967 10.0232 19.2343 10.0232L22.7556 10.0355L23.3828 11.4849V10.0232H25.406L25.9629 10.8558V10.0232H28.0046V14.7332H25.9629L25.4292 13.8979V14.7332H22.4567L22.1578 13.9907H21.3587L21.0646 14.7332H19.0487C18.2419 14.7332 17.7262 14.2104 17.7262 14.2104V14.7332H14.6868L14.0835 13.9907V14.7332H2.78132L2.4826 13.9907H1.68603L1.38942 14.7332H0V12.645Z" fill="white"/>
<path d="M1.52463 10.6057L0.0078125 14.1323H0.995341L1.27521 13.4261H2.90224L3.18067 14.1323H4.18995L2.67458 10.6057H1.52463ZM2.08583 11.4264L2.58177 12.6605H1.58844L2.08583 11.4264Z" fill="#A5A5A5"/>
<path d="M4.29199 14.1284V10.6017L5.69532 10.607L6.51155 12.8807L7.30822 10.6017H8.70033V14.1284H7.81866V11.5298L6.88408 14.1284H6.11085L5.17366 11.5298V14.1284H4.29199Z" fill="#A5A5A5"/>
<path d="M9.30371 14.1284V10.6017H12.1807V11.3906H10.1947V11.9939H12.1343V12.7363H10.1947V13.3628H12.1807V14.1284H9.30371Z" fill="#A5A5A5"/>
<path d="M12.6914 10.6057V14.1323H13.5731V12.8794H13.9443L15.0015 14.1323H16.0789L14.9188 12.833C15.3949 12.7929 15.886 12.3842 15.886 11.7498C15.886 11.0077 15.3035 10.6057 14.6534 10.6057H12.6914ZM13.5731 11.3945H14.5809C14.8227 11.3945 14.9986 11.5836 14.9986 11.7657C14.9986 12 14.7707 12.137 14.594 12.137H13.5731V11.3945Z" fill="#A5A5A5"/>
<path d="M17.1454 14.1284H16.2451V10.6017H17.1454V14.1284Z" fill="#A5A5A5"/>
<path d="M19.2805 14.1284H19.0862C18.146 14.1284 17.5752 13.3877 17.5752 12.3796C17.5752 11.3466 18.1396 10.6017 19.3269 10.6017H20.3014V11.437H19.2913C18.8093 11.437 18.4685 11.8131 18.4685 12.3883C18.4685 13.0713 18.8582 13.3581 19.4197 13.3581H19.6518L19.2805 14.1284Z" fill="#A5A5A5"/>
<path d="M21.1994 10.6057L19.6826 14.1323H20.6701L20.95 13.4261H22.577L22.8555 14.1323H23.8648L22.3494 10.6057H21.1994ZM21.7606 11.4264L22.2566 12.6605H21.2632L21.7606 11.4264Z" fill="#A5A5A5"/>
<path d="M23.9678 14.1284V10.6017H25.0887L26.52 12.8175V10.6017H27.4016V14.1284H26.317L24.8494 11.8546V14.1284H23.9678Z" fill="#A5A5A5"/>
<path d="M6.42676 20.3003V16.7736H9.30379V17.5625H7.31771V18.1657H9.25738V18.9082H7.31771V19.5346H9.30379V20.3003H6.42676Z" fill="#A5A5A5"/>
<path d="M20.5234 20.3003V16.7736H23.4005V17.5625H21.4144V18.1657H23.3448V18.9082H21.4144V19.5346H23.4005V20.3003H20.5234Z" fill="#A5A5A5"/>
<path d="M9.41616 20.3003L10.817 18.5587L9.38281 16.7736H10.4936L11.3477 17.8772L12.2047 16.7736H13.272L11.8567 18.537L13.2601 20.3003H12.1495L11.3202 19.2142L10.511 20.3003H9.41616Z" fill="#A5A5A5"/>
<path d="M13.3643 16.7775V20.3042H14.2691V19.1905H15.1972C15.9825 19.1905 16.5777 18.7739 16.5777 17.9637C16.5777 17.2926 16.1109 16.7775 15.3118 16.7775H13.3643ZM14.2691 17.5751H15.2465C15.5002 17.5751 15.6815 17.7306 15.6815 17.9811C15.6815 18.2165 15.5011 18.3872 15.2436 18.3872H14.2691V17.5751Z" fill="#A5A5A5"/>
<path d="M16.9609 16.7736V20.3003H17.8426V19.0474H18.2138L19.271 20.3003H20.3484L19.1883 19.001C19.6644 18.9608 20.1555 18.5522 20.1555 17.9178C20.1555 17.1756 19.573 16.7736 18.9229 16.7736H16.9609ZM17.8426 17.5625H18.8504C19.0922 17.5625 19.2681 17.7516 19.2681 17.9337C19.2681 18.168 19.0402 18.3049 18.8635 18.3049H17.8426V17.5625Z" fill="#A5A5A5"/>
<path d="M23.8102 20.3003V19.5346H25.5747C25.8358 19.5346 25.9488 19.3936 25.9488 19.2388C25.9488 19.0906 25.8361 18.9407 25.5747 18.9407H24.7773C24.0842 18.9407 23.6982 18.5184 23.6982 17.8844C23.6982 17.3189 24.0517 16.7736 25.0817 16.7736H26.7986L26.4274 17.5671H24.9424C24.6586 17.5671 24.5712 17.7161 24.5712 17.8583C24.5712 18.0045 24.6792 18.1657 24.896 18.1657H25.7313C26.5039 18.1657 26.8392 18.604 26.8392 19.1779C26.8392 19.7949 26.4656 20.3003 25.6892 20.3003H23.8102Z" fill="#A5A5A5"/>
<path d="M27.0446 20.3003V19.5346H28.809C29.0701 19.5346 29.1832 19.3936 29.1832 19.2388C29.1832 19.0906 29.0705 18.9407 28.809 18.9407H28.0117C27.3186 18.9407 26.9326 18.5184 26.9326 17.8844C26.9326 17.3189 27.2861 16.7736 28.316 16.7736H30.0329L29.6617 17.5671H28.1768C27.893 17.5671 27.8056 17.7161 27.8056 17.8583C27.8056 18.0045 27.9136 18.1657 28.1304 18.1657H28.9657C29.7383 18.1657 30.0735 18.604 30.0735 19.1779C30.0735 19.7949 29.6999 20.3003 28.9236 20.3003H27.0446Z" fill="#A5A5A5"/>
</g>
<defs>
<clipPath id="clip0_2_113">
<rect width="30.0747" height="30" fill="white"/>
</clipPath>
</defs>
</svg>
