<svg width="51" height="20" viewBox="0 0 51 20" fill="none" xmlns="http://www.w3.org/2000/svg">
<g clip-path="url(#clip0_2_60)">
<path fill-rule="evenodd" clip-rule="evenodd" d="M11.509 4.54027C10.6506 3.72144 9.50446 3.27328 8.31831 3.29266C6.14884 3.29266 4.30745 4.75514 3.64899 6.72591L3.64783 6.72501C3.29982 7.75763 3.29985 8.87585 3.64792 9.90845L3.646 9.90994H3.64899C4.30745 11.8807 6.14884 13.3432 8.31831 13.3432C9.44173 13.3432 10.4024 13.0547 11.1485 12.5492V12.5472C11.5817 12.2598 11.9522 11.8877 12.2377 11.4533C12.5232 11.0189 12.7178 10.5312 12.8097 10.0196H8.31714V6.81621H16.1609C16.257 7.37482 16.3049 7.94063 16.3042 8.50743C16.3042 11.0385 15.3997 13.1791 13.8298 14.6265H13.8293L13.8309 14.6278C12.4528 15.8985 10.5629 16.6355 8.31831 16.6355C6.77659 16.6355 5.26524 16.2069 3.95297 15.3977C2.6407 14.5884 1.57918 13.4304 0.886902 12.0528V12.0505L0.885842 12.0513C0.303478 10.8925 0.000183105 9.61353 0.000183105 8.31658C0.000183105 7.01964 0.303478 5.74066 0.885842 4.58182H0.887504C1.57979 3.20479 2.64108 2.0472 3.95297 1.2382C5.26524 0.428975 6.77659 0.000402345 8.31831 0.000332079C10.3834 -0.0237874 12.3776 0.752456 13.8829 2.16633L11.509 4.54027ZM23.82 9.7725V15.6351H21.9601V1.15701H26.8929C27.4816 1.14471 28.067 1.24914 28.6153 1.46426C29.1635 1.67939 29.6637 2.00095 30.087 2.4104C30.5145 2.79499 30.8548 3.26665 31.085 3.79368C31.3151 4.3207 31.4298 4.89089 31.4212 5.46591C31.4335 6.04401 31.3206 6.61791 31.0903 7.1483C30.86 7.67868 30.5177 8.153 30.087 8.53875C29.2244 9.36125 28.1597 9.77212 26.8929 9.77135H23.82V9.7725ZM23.82 2.93948V7.99349H26.9391C27.281 8.00363 27.6213 7.94228 27.9382 7.81338C28.255 7.68449 28.5415 7.49087 28.7793 7.24492C29.0158 7.01496 29.2038 6.73991 29.3322 6.43603C29.4606 6.13215 29.5268 5.80562 29.5268 5.47573C29.5268 5.14584 29.4606 4.8193 29.3322 4.51543C29.2038 4.21155 29.0158 3.9365 28.7793 3.70654C28.5445 3.45541 28.259 3.25705 27.9418 3.12461C27.6245 2.99217 27.2827 2.92867 26.9391 2.93833H23.82V2.93948ZM35.7068 5.40604C37.0815 5.40604 38.1666 5.77339 38.9622 6.5081C39.7577 7.24281 40.1551 8.25014 40.1543 9.5301V15.6353H38.3753V14.2606H38.2945C37.5243 15.3927 36.5 15.9588 35.2216 15.9588C34.1303 15.9588 33.2173 15.6353 32.4826 14.9884C32.13 14.6915 31.8482 14.3197 31.6575 13.9C31.4668 13.4803 31.3722 13.0234 31.3806 12.5625C31.3806 11.5375 31.768 10.7223 32.5427 10.1169C33.3175 9.51162 34.3518 9.20819 35.6456 9.20665C36.75 9.20665 37.6595 9.40881 38.3742 9.81313V9.38801C38.3763 9.07382 38.3084 8.76309 38.1756 8.47837C38.0427 8.19364 37.8481 7.94206 37.606 7.74185C37.1141 7.29811 36.4731 7.05599 35.8108 7.06375C34.7719 7.06375 33.9497 7.50196 33.3444 8.37837L31.7063 7.34677C32.6074 6.05295 33.9409 5.40604 35.7068 5.40604ZM33.3005 12.6029C33.2993 12.8396 33.3546 13.0732 33.4619 13.2842C33.5692 13.4952 33.7254 13.6775 33.9174 13.8159C34.3287 14.1395 34.8393 14.3109 35.3626 14.3011C36.1474 14.2998 36.8997 13.9874 37.4546 13.4324C38.0707 12.8525 38.3788 12.172 38.3788 11.3911C37.7989 10.929 36.9902 10.698 35.9529 10.698C35.1974 10.698 34.5674 10.8801 34.063 11.2444C33.5535 11.6141 33.3005 12.0635 33.3005 12.6029ZM44.1571 19.9989L50.3675 5.72635H48.3424L45.4718 12.8424H45.4313L42.4798 5.72635H40.4582L44.5418 15.0049L42.2372 19.9989H44.1571Z" fill="#A5A5A5"/>
</g>
<defs>
<clipPath id="clip0_2_60">
<rect width="50.3633" height="20" fill="white"/>
</clipPath>
</defs>
</svg>
