<svg width="30" height="30" viewBox="0 0 30 30" fill="none" xmlns="http://www.w3.org/2000/svg">
<path d="M19.5806 3.76608H19.5445H19.5066H19.4705H19.4344H19.3983H19.3622H19.3261H19.29H19.2539H19.2195H19.1834H19.1456H19.1095H19.0734H19.0382H19.0021H18.966H18.9298H18.8937H18.8576H18.8233H18.7872H18.7511H18.715H18.6789H18.6428H18.6067H18.5706H18.5345H18.4975H18.4614H18.4253H18.3892H18.3531H18.317H18.2809H18.243H18.2069H18.1708H18.1347H18.1004H18.0643H18.0282H17.9938H17.956H17.9199H17.8838H17.8477H17.8116H17.7755H17.7411H17.705H17.6689H17.6328H17.5967H17.5606H17.5227H17.4866H17.4505H17.4144H17.3783H17.3422H17.3061H17.27H17.233H17.1969H17.1591H17.123H17.0869H17.0508H17.0147H16.9786H16.9425H16.9064H16.8703H16.8342H16.7963H16.7602H16.7241H16.688H16.6519H16.6211H16.585H16.5489H16.5128H16.4767H16.4406H16.4053H16.3692H16.3331H16.2962H16.2601H16.2239H16.1878H16.1517H16.1156H16.0795H16.0434H16.0073H15.9712H15.9351H15.899H15.8629H15.8268H15.7916H15.7555H15.7185H15.6824H15.6454H15.6093H15.5732H15.5371H15.5037H15.4676H15.4315H15.3954H15.3584H15.3223H15.2862H15.2492H15.2131H15.1779H15.1426H15.1065H15.0704H15.0343H14.9982H14.9621H14.926H14.8899H14.8538H14.8177H14.7816H14.7455H14.7094H14.6733H14.6363H14.6002H14.5641H14.528H14.491H14.4549H14.4206H14.3854H14.3493H14.3132H14.2762H14.2401H14.204H14.1679H14.1318H14.1124H14.0966C14.0842 3.76608 14.0728 3.76608 14.0605 3.76608C14.0481 3.76608 14.0367 3.76608 14.0244 3.76608C14.012 3.76872 14.0006 3.76872 13.9883 3.76961L13.9513 3.77049C13.9398 3.77049 13.9275 3.77137 13.9152 3.77225C13.9028 3.77225 13.8914 3.77401 13.8791 3.77401C13.8676 3.77489 13.8553 3.77577 13.843 3.77665C13.8306 3.77753 13.8192 3.77753 13.8069 3.77753L13.7699 3.78105C13.7584 3.78193 13.7461 3.78281 13.7338 3.78369C13.7215 3.78457 13.7091 3.78634 13.6977 3.7881L13.6616 3.79162L13.6255 3.79602C13.6131 3.79778 13.6017 3.79954 13.5894 3.8013C13.577 3.80307 13.5656 3.80483 13.5533 3.80571C13.5409 3.80747 13.5295 3.80923 13.5172 3.81187L13.4811 3.81892L13.445 3.82508C13.4326 3.82772 13.4212 3.82948 13.408 3.83212C13.3965 3.83477 13.3842 3.83653 13.3719 3.83917C13.3596 3.84093 13.3481 3.84357 13.3358 3.84621L13.2997 3.85414C13.2873 3.85678 13.2759 3.85942 13.2636 3.86206C13.2512 3.8647 13.2398 3.86823 13.2275 3.87087C13.2151 3.87351 13.2037 3.87615 13.1914 3.87967C13.179 3.88231 13.1676 3.88584 13.1553 3.88848L13.1192 3.89904C13.1068 3.90257 13.0954 3.90521 13.0831 3.90873C13.0707 3.91225 13.0593 3.91577 13.047 3.9193C13.0346 3.92282 13.0232 3.92634 13.0109 3.93074C12.9994 3.93339 12.9871 3.93779 12.9748 3.94131L12.9378 3.95364C12.9254 3.95716 12.914 3.96156 12.9017 3.96597C12.8893 3.97037 12.8779 3.97389 12.8647 3.97917C12.8532 3.98358 12.8409 3.9871 12.8286 3.99238C12.8163 3.9959 12.8048 4.00119 12.7925 4.00559C12.781 4.00911 12.7678 4.01528 12.7564 4.01968C12.7432 4.02408 12.7317 4.02936 12.7194 4.03377L12.6833 4.04874C12.671 4.05402 12.6595 4.05842 12.6472 4.06371C12.6357 4.06899 12.6234 4.07427 12.6111 4.07955C12.5996 4.08484 12.5873 4.09012 12.575 4.0954C12.5627 4.10069 12.5512 4.10685 12.5389 4.11214C12.5266 4.11742 12.5142 4.1227 12.5019 4.12975C12.4896 4.13503 12.4781 4.14119 12.4658 4.14736L12.4297 4.16497L12.3936 4.18258C12.3813 4.18874 12.3689 4.19491 12.3575 4.20107C12.3452 4.20723 12.3337 4.2134 12.3205 4.21956C12.3091 4.22661 12.2967 4.23365 12.2844 4.23981C12.2721 4.24598 12.2606 4.25302 12.2483 4.2583C12.2369 4.26535 12.2245 4.27239 12.2122 4.27944C12.1999 4.28648 12.1876 4.29353 12.1752 4.30057C12.1629 4.30938 12.1515 4.31642 12.1391 4.32346C12.1268 4.33051 12.1154 4.33843 12.103 4.34636C12.0916 4.3534 12.0792 4.36221 12.0669 4.36925C12.0546 4.3763 12.0423 4.3851 12.0308 4.39215C12.0185 4.40007 12.007 4.40888 11.9947 4.4168C11.9824 4.42473 11.9709 4.43353 11.9577 4.44146C11.9463 4.44938 11.934 4.45995 11.9216 4.46699C11.9102 4.4758 11.8979 4.48548 11.8855 4.49341C11.8732 4.50221 11.8618 4.5119 11.8494 4.52071C11.8371 4.52951 11.8257 4.5392 11.8133 4.548C11.8001 4.55945 11.7887 4.56825 11.7763 4.57882C11.764 4.58763 11.7526 4.59731 11.7402 4.60788C11.7279 4.61845 11.7165 4.62637 11.7041 4.63782C11.6927 4.6475 11.6804 4.65807 11.668 4.66864C11.6557 4.6792 11.6443 4.68889 11.6319 4.70034C11.6196 4.71178 11.6073 4.72147 11.5958 4.73292C11.5835 4.74348 11.5721 4.75493 11.5588 4.76638C11.5474 4.77782 11.5351 4.78839 11.5227 4.79984C11.5104 4.81216 11.499 4.82361 11.4866 4.83594C11.4743 4.84739 11.4629 4.85883 11.4505 4.87204C11.4382 4.88349 11.4268 4.8967 11.4144 4.90902C11.4021 4.92135 11.3907 4.93456 11.3783 4.94689C11.366 4.9601 11.3537 4.97242 11.3422 4.98563C11.3299 4.99884 11.3185 5.01205 11.3061 5.02525C11.2938 5.03934 11.2824 5.05255 11.27 5.06664C11.2577 5.08073 11.2463 5.09482 11.233 5.10891C11.2207 5.123 11.2093 5.13796 11.1969 5.15293C11.1846 5.1679 11.1723 5.18287 11.16 5.19784C11.1485 5.21369 11.1362 5.22866 11.1239 5.24539C11.1115 5.26124 11.1001 5.27797 11.0878 5.29382C11.0754 5.31055 11.0631 5.3264 11.0517 5.34313C11.0393 5.36074 11.0279 5.37835 11.0156 5.39508C11.0032 5.41357 10.9909 5.43118 10.9795 5.44968C10.9671 5.46817 10.9557 5.48666 10.9434 5.50515C10.931 5.52452 10.9187 5.54389 10.9072 5.56326C10.8949 5.58264 10.8835 5.60377 10.8711 5.62402C10.8588 5.64516 10.8474 5.66629 10.835 5.68742C10.8227 5.70943 10.8113 5.73145 10.7989 5.75346C10.7866 5.77636 10.7743 5.79925 10.762 5.82302C10.7496 5.8468 10.7382 5.87145 10.7259 5.89611C10.7135 5.92164 10.7012 5.94718 10.6889 5.9736C10.6765 6.00089 10.6651 6.02819 10.6528 6.05637C10.6404 6.08543 10.6281 6.11448 10.6167 6.1453C10.6043 6.177 10.592 6.2087 10.5806 6.24128C10.5674 6.2765 10.5559 6.31172 10.5445 6.34607C10.5313 6.38481 10.5198 6.42355 10.5084 6.4623C10.496 6.50632 10.4837 6.55035 10.4723 6.59526C10.4591 6.64721 10.4467 6.69916 10.4362 6.75199C10.3851 6.99767 10.3587 7.25214 10.3587 7.51278V12.4156C10.3842 12.3945 10.4097 12.3725 10.4362 12.3513C10.4476 12.3417 10.4599 12.332 10.4723 12.3223C10.4846 12.3135 10.496 12.3038 10.5084 12.2941C10.5207 12.2844 10.5321 12.2756 10.5445 12.2668C10.5568 12.2571 10.5682 12.2483 10.5806 12.2395C10.592 12.2307 10.6043 12.2219 10.6167 12.214C10.6281 12.2061 10.6404 12.1973 10.6528 12.1884L10.6889 12.1638C10.7012 12.1559 10.7127 12.1471 10.7259 12.14L10.762 12.1162C10.7743 12.1083 10.7857 12.1004 10.7989 12.0934C10.8104 12.0854 10.8227 12.0784 10.835 12.0713C10.8474 12.0634 10.8588 12.0564 10.8711 12.0493C10.8835 12.0423 10.8949 12.0352 10.9072 12.0282C10.9196 12.0211 10.931 12.0132 10.9434 12.0071C10.9557 12 10.9671 11.993 10.9795 11.9868L11.0156 11.9674L11.0517 11.9481C11.064 11.9419 11.0754 11.9349 11.0878 11.9287C11.1001 11.9225 11.1115 11.9164 11.1239 11.9102L11.16 11.8917L11.1969 11.8732L11.233 11.8547C11.2454 11.8494 11.2568 11.8433 11.27 11.838L11.3061 11.8213L11.3422 11.8045L11.3783 11.7887L11.4144 11.7728L11.4505 11.7579L11.4866 11.7429L11.5227 11.7279L11.5588 11.7138L11.5958 11.6997C11.6073 11.6953 11.6196 11.6901 11.6319 11.6857L11.668 11.6716C11.6795 11.6672 11.6918 11.6628 11.7041 11.6584C11.7165 11.654 11.7279 11.6496 11.7402 11.6452L11.7763 11.6328L11.8133 11.6196C11.8248 11.6161 11.8371 11.6117 11.8494 11.6073L11.8855 11.595C11.897 11.5914 11.9093 11.587 11.9216 11.5835L11.9577 11.5721L11.9947 11.5606L12.0308 11.5501L12.0669 11.5395L12.103 11.5289L12.1391 11.5184L12.1752 11.5078L12.2122 11.4981L12.2483 11.4884L12.2923 11.4779L12.3284 11.4699L12.3654 11.4611L12.4015 11.4523L12.4376 11.4435L12.4737 11.4347L12.5098 11.4268L12.5468 11.4189L12.5829 11.4109L12.619 11.403L12.6551 11.3951L12.6912 11.388L12.7273 11.381L12.7643 11.3739L12.8004 11.3669L12.8365 11.3599L12.8726 11.3537L12.9096 11.3475L12.9457 11.3414L12.9827 11.3352L13.0188 11.329L13.0549 11.3229L13.091 11.3185L13.1271 11.3123L13.1632 11.307L13.1993 11.3026L13.2354 11.2973L13.2715 11.2929L13.3076 11.2885L13.3437 11.2833L13.3798 11.2789L13.4159 11.2744L13.4529 11.27L13.489 11.2665L13.5251 11.2621L13.5612 11.2586L13.5973 11.2542L13.6334 11.2516L13.6695 11.248L13.7056 11.2445L13.7417 11.241L13.7778 11.2383L13.8148 11.2357L13.8509 11.2331L13.887 11.2313L13.9231 11.2287L13.9592 11.226L13.9962 11.2243L14.0323 11.2216L14.0684 11.2199L14.1045 11.2181L14.1406 11.2163L14.1767 11.2146L14.2128 11.2128L14.2489 11.211L14.285 11.2102L14.322 11.2084L14.3581 11.2075L14.3942 11.2066L14.4303 11.2058L14.4664 11.2049H14.5025L14.5395 11.204L14.5756 11.2031L14.6117 11.2022H14.6478L14.6848 11.2014H14.7209H14.757H14.7931H14.8292H14.8653H14.9014H14.9375H14.9736H15.0097H15.0458H15.0819L15.118 11.2022H15.1541L15.1902 11.2031L15.2272 11.204H15.2633L15.3003 11.2049H15.3364L15.3725 11.2058L15.4095 11.2066L15.4456 11.2075L15.4817 11.2084L15.5178 11.2093L15.5539 11.2102L15.59 11.2119L15.6261 11.2137H15.6446L15.6622 11.2146L15.7 11.2163L15.7361 11.2172L15.7722 11.219L15.8083 11.2216L15.8444 11.2234L15.8805 11.2251L15.9166 11.2278L15.9527 11.2304L15.9888 11.2331L16.0249 11.2357L16.061 11.2383L16.0972 11.2419L16.1333 11.2454L16.1694 11.248L16.2055 11.2516L16.2424 11.2542L16.2785 11.2577L16.3155 11.2612L16.3516 11.2648L16.3877 11.2683L16.4238 11.2727L16.4608 11.2762L16.4969 11.2806L16.533 11.2841L16.5691 11.2885L16.6052 11.2929L16.6413 11.2973L16.6783 11.3017L16.7144 11.3061L16.7505 11.3106L16.7866 11.315L16.8227 11.3202L16.8606 11.3246L16.8967 11.3299L16.9328 11.3352L16.9689 11.3405L17.005 11.3467L17.0411 11.3511L17.0772 11.3563L17.1133 11.3616L17.1494 11.3678L17.1855 11.3731L17.2234 11.3784L17.2595 11.3836L17.2947 11.3898L17.3308 11.396L17.366 11.4021L17.4039 11.4083L17.44 11.4145L17.4761 11.4215L17.5122 11.4277L17.5483 11.4338L17.5844 11.4409L17.6205 11.447L17.6566 11.4532L17.6927 11.4602L17.7288 11.4664L17.7649 11.4735L17.801 11.4814L17.8371 11.4884L17.8732 11.4955L17.9093 11.5025L17.9472 11.5096L17.9833 11.5166L18.0194 11.5245L18.0555 11.5316L18.0916 11.5386L18.1277 11.5465L18.1655 11.5536L18.2016 11.5615L18.2377 11.5694L18.2738 11.5774L18.3099 11.5853L18.3461 11.5932L18.3822 11.6011L18.4183 11.6091L18.4544 11.6179L18.4922 11.6267L18.5283 11.6346L18.5644 11.6434L18.6005 11.6522V13.2372L18.5644 13.2187L18.5283 13.2011L18.4922 13.1826L18.4544 13.165L18.4183 13.1474L18.3822 13.1289L18.3461 13.1121L18.3099 13.0945L18.2738 13.0778L18.2377 13.0611L18.2016 13.0443L18.1655 13.0276L18.1277 13.0118L18.0916 12.9959L18.0555 12.9801L18.0194 12.9642L17.9833 12.9484L17.9472 12.9334L17.9093 12.9184L17.8732 12.9034L17.8371 12.8885L17.801 12.8735L17.7649 12.8594L17.7288 12.8453L17.6927 12.8312L17.6566 12.818L17.6205 12.8048L17.5844 12.7916L17.5483 12.7793L17.5122 12.7661L17.4761 12.7538L17.44 12.7423L17.4039 12.73L17.366 12.7185L17.3308 12.7071L17.2947 12.6956L17.2595 12.6842L17.2234 12.6727L17.1855 12.6622L17.1494 12.6516L17.1133 12.641L17.0772 12.6305L17.0411 12.6208L17.005 12.6111L16.9689 12.6014L16.9328 12.5926L16.8967 12.5838L16.8606 12.575L16.8227 12.5662L16.7866 12.5574L16.7505 12.5495L16.7144 12.5415L16.6783 12.5336L16.6413 12.5266L16.6052 12.5195L16.5691 12.5125L16.533 12.5054L16.4969 12.4993L16.4608 12.4922L16.4238 12.4861L16.3877 12.4799L16.3516 12.4729L16.3155 12.4676L16.2785 12.4623L16.2424 12.457L16.2055 12.4517L16.1694 12.4464L16.1333 12.442L16.0972 12.4368L16.061 12.4332L16.0249 12.4288L15.9888 12.4253L15.9527 12.4209L15.899 12.4297L15.8629 12.4262L15.8268 12.4236L15.7916 12.42L15.7555 12.4174L15.7335 12.4156H15.7194L15.6833 12.413L15.6463 12.4112L15.6102 12.4095L15.5741 12.4077L15.538 12.4059L15.5019 12.4051L15.4658 12.4042L15.4297 12.4033H15.3936L15.3566 12.4024C15.3443 12.4024 15.3328 12.4024 15.3205 12.4024H15.2844L15.2474 12.4033H15.2113L15.1743 12.4042C15.1629 12.4042 15.1506 12.4042 15.1382 12.4051C15.1259 12.4059 15.1145 12.4059 15.1021 12.4068L15.066 12.4086L15.0299 12.4103L14.9938 12.413L14.9577 12.4156C14.9463 12.4165 14.934 12.4174 14.9216 12.4183C14.9093 12.4192 14.8979 12.42 14.8855 12.4218L14.8494 12.4253L14.8133 12.4297L14.7772 12.4332L14.7411 12.4385L14.705 12.4447L14.6689 12.45C14.6566 12.4517 14.6451 12.4535 14.6319 12.4561C14.6205 12.4579 14.6082 12.4597 14.5958 12.4614C14.5835 12.4641 14.5721 12.4658 14.5597 12.4685C14.5474 12.4711 14.5351 12.472 14.5236 12.4755C14.5104 12.4773 14.4999 12.4799 14.4866 12.4825C14.4743 12.4852 14.4629 12.487 14.4505 12.4896C14.4382 12.4931 14.4268 12.4958 14.4144 12.4984L14.3783 12.5072C14.366 12.5098 14.3546 12.5134 14.3422 12.516C14.3299 12.5187 14.3176 12.5222 14.3061 12.5248C14.2938 12.5283 14.2824 12.5319 14.2692 12.5354L14.233 12.5459C14.2216 12.5486 14.2093 12.553 14.1969 12.5565C14.1846 12.5609 14.1732 12.5636 14.1608 12.568C14.1485 12.5715 14.1371 12.5759 14.1247 12.5794C14.1124 12.5829 14.101 12.5873 14.0886 12.5917C14.0763 12.5961 14.0649 12.6005 14.0525 12.6058C14.0402 12.6093 14.0288 12.6138 14.0164 12.619C14.0041 12.6243 13.9927 12.6287 13.9803 12.6331C13.968 12.6375 13.9566 12.6428 13.9434 12.6472C13.931 12.6525 13.9196 12.6578 13.9072 12.6631C13.8949 12.6683 13.8835 12.6736 13.8711 12.6789C13.8597 12.6842 13.8474 12.6904 13.835 12.6956C13.8227 12.7009 13.8113 12.7071 13.7989 12.7133C13.7866 12.7194 13.7752 12.7247 13.762 12.7309C13.7496 12.737 13.7382 12.7432 13.7259 12.7494C13.7135 12.7555 13.7012 12.7617 13.6898 12.7678C13.6774 12.774 13.6651 12.7811 13.6537 12.7881C13.6413 12.7951 13.6299 12.8022 13.6176 12.8083C13.6052 12.8154 13.5938 12.8233 13.5814 12.8304C13.5691 12.8374 13.5577 12.8453 13.5453 12.8533C13.533 12.8612 13.5207 12.8691 13.5092 12.8762C13.4969 12.8841 13.4855 12.8929 13.4731 12.9008C13.4608 12.9096 13.4494 12.9175 13.437 12.9263C13.4247 12.9351 13.4124 12.944 13.4001 12.9528C13.3877 12.9616 13.3763 12.9712 13.364 12.9809C13.3516 12.9906 13.3393 12.9994 13.3279 13.01C13.3155 13.0206 13.3032 13.0294 13.2918 13.0399C13.2794 13.0505 13.268 13.0602 13.2556 13.0716C13.2433 13.0822 13.2319 13.0936 13.2195 13.1042C13.2072 13.1157 13.1958 13.1271 13.1834 13.1394C13.1711 13.1509 13.1588 13.1632 13.1473 13.1747C13.135 13.1879 13.1236 13.2002 13.1112 13.2134C13.0989 13.2266 13.0875 13.2398 13.0751 13.253C13.0628 13.2662 13.0514 13.2803 13.039 13.2953C13.0267 13.3094 13.0153 13.3243 13.0029 13.3393C12.9906 13.3552 12.9792 13.3701 12.9668 13.386C12.9545 13.4027 12.9422 13.4194 12.9299 13.4353C12.9175 13.4538 12.9061 13.4705 12.8937 13.489C12.8814 13.5075 12.8691 13.526 12.8568 13.5445C12.8444 13.563 12.833 13.5841 12.8207 13.6052C12.8083 13.6264 12.796 13.6484 12.7846 13.6704C12.7722 13.6942 12.7599 13.7171 12.7485 13.7417C12.7353 13.7664 12.7238 13.7928 12.7115 13.8192C12.6991 13.8474 12.6868 13.8747 12.6754 13.9037C12.6622 13.9354 12.6507 13.968 12.6393 14.0006C12.6269 14.0367 12.6146 14.0737 12.6032 14.1107C12.5908 14.1538 12.5776 14.1978 12.5671 14.2427C12.553 14.2991 12.5415 14.3555 12.531 14.4136C12.5151 14.4999 12.5028 14.587 12.494 14.6786C12.4843 14.7834 12.479 14.8917 12.479 15.0035C12.479 15.1136 12.4843 15.2237 12.494 15.3267C12.5028 15.4183 12.5142 15.5054 12.531 15.5917C12.5415 15.6481 12.553 15.7071 12.5671 15.7617C12.5776 15.8083 12.59 15.8515 12.6032 15.8938C12.6146 15.9316 12.6269 15.9677 12.6393 16.0038C12.6507 16.0364 12.6622 16.069 12.6754 16.0998C12.6868 16.1289 12.6991 16.1553 12.7115 16.1861C12.7229 16.2099 12.7353 16.2381 12.7485 16.2636C12.759 16.2856 12.7714 16.3103 12.7846 16.334C12.796 16.3543 12.8083 16.3772 12.8207 16.3974C12.8321 16.4168 12.8444 16.4388 12.8568 16.4591C12.8691 16.4767 12.8805 16.4969 12.8937 16.5137C12.9052 16.5322 12.9175 16.548 12.9299 16.5665C12.9422 16.5832 12.9536 16.5991 12.9668 16.6176C12.9783 16.6334 12.9906 16.6484 13.0029 16.6642C13.0153 16.6801 13.0267 16.6933 13.039 16.7091C13.0514 16.7232 13.0628 16.7364 13.0751 16.7505C13.0875 16.7664 13.0989 16.7778 13.1112 16.7902C13.1236 16.8042 13.135 16.8157 13.1473 16.8298C13.1588 16.8421 13.1711 16.8518 13.1834 16.8659C13.1958 16.8782 13.2072 16.8879 13.2195 16.9002C13.2319 16.9108 13.2433 16.9222 13.2556 16.9328C13.268 16.9434 13.2794 16.953 13.2918 16.9636C13.3032 16.9759 13.3155 16.9821 13.3279 16.9944C13.3393 17.0032 13.3516 17.0129 13.364 17.0217C13.3754 17.0323 13.3877 17.0402 13.4001 17.049C13.4124 17.0578 13.4238 17.0675 13.437 17.0754C13.4485 17.0851 13.4608 17.0939 13.4731 17.1001C13.4855 17.108 13.4969 17.1168 13.5092 17.1239C13.5207 17.1327 13.533 17.1406 13.5453 17.1459C13.5577 17.1512 13.5691 17.1617 13.5814 17.1679C13.5938 17.1732 13.6052 17.1838 13.6176 17.189C13.6299 17.1943 13.6413 17.204 13.6537 17.2084C13.6651 17.2163 13.6774 17.2234 13.6898 17.2287C13.7012 17.2339 13.7135 17.241 13.7259 17.2463C13.7382 17.2542 13.7496 17.2612 13.762 17.2648C13.7743 17.2718 13.7866 17.2771 13.7989 17.2824C13.8113 17.2903 13.8227 17.2956 13.835 17.3009C13.8465 17.3061 13.8588 17.3132 13.8711 17.3185C13.8835 17.3238 13.8949 17.329 13.9072 17.3343C13.9196 17.3414 13.931 17.3467 13.9434 17.3519C13.9557 17.3555 13.9671 17.3616 13.9803 17.3669C13.9918 17.3704 14.0041 17.3766 14.0164 17.3819C14.0288 17.3854 14.0402 17.3907 14.0525 17.396C14.0649 17.3995 14.0763 17.4048 14.0886 17.4083C14.101 17.4118 14.1124 17.4171 14.1247 17.4224C14.1371 17.4259 14.1485 17.4294 14.1608 17.4338C14.1732 17.4391 14.1846 17.4426 14.1969 17.4462C14.2084 17.4506 14.2207 17.4541 14.233 17.4576C14.2454 17.4611 14.2577 17.4646 14.2692 17.4682C14.2815 17.4717 14.2929 17.4752 14.3061 17.4787C14.3176 17.4805 14.3299 17.484 14.3422 17.4875C14.3546 17.4893 14.366 17.4946 14.3783 17.4963L14.4144 17.5051C14.4268 17.5096 14.4382 17.5113 14.4505 17.5148C14.4629 17.5184 14.4743 17.5201 14.4866 17.5219C14.499 17.5263 14.5104 17.528 14.5236 17.5298C14.5351 17.5333 14.5474 17.5351 14.5597 17.5368C14.5721 17.5404 14.5835 17.5421 14.5958 17.5439C14.6082 17.5457 14.6196 17.5492 14.6319 17.5509C14.6443 17.5527 14.6557 17.5545 14.6689 17.5562C14.6804 17.558 14.6927 17.5597 14.705 17.5615L14.7411 17.5668L14.7772 17.5738L14.8133 17.5774L14.8494 17.5809L14.8855 17.5853C14.8979 17.587 14.9093 17.5888 14.9216 17.5888C14.934 17.5906 14.9463 17.5906 14.9577 17.5923L14.9938 17.5941L15.0299 17.5976L15.066 17.5994L15.1021 17.602C15.1145 17.602 15.1259 17.602 15.1382 17.6038C15.1506 17.6038 15.162 17.6038 15.1743 17.6038L15.2113 17.6055H15.2474H15.2844H15.3205C15.3328 17.6055 15.3443 17.6055 15.3566 17.6055H15.3936H15.4297L15.4658 17.6038H15.5019L15.538 17.602L15.5741 17.5994L15.6102 17.5976L15.6463 17.5958L15.6833 17.5941L15.7194 17.5923L15.7335 17.5906L15.7555 17.5888L15.7916 17.587L15.8268 17.5826L15.8629 17.5791L15.899 17.5756L15.9351 17.5721L15.9712 17.5668L16.0073 17.5633L16.0434 17.5597L16.0795 17.5545L16.1156 17.5492L16.1517 17.5439L16.1878 17.5386L16.2257 17.5316L16.2618 17.5245L16.2979 17.5192L16.334 17.514L16.3701 17.5087L16.4062 17.5016L16.4441 17.4946L16.4802 17.4893L16.5163 17.4814L16.5524 17.4743L16.5885 17.4646L16.6246 17.4576L16.6607 17.4488L16.6968 17.4418L16.7329 17.4329L16.769 17.4241L16.8051 17.4171L16.843 17.4074L16.8791 17.3986L16.9152 17.3889L16.9513 17.3784L16.9874 17.3678L17.0235 17.359L17.0596 17.3484L17.0957 17.3378L17.1318 17.3264L17.1679 17.315L17.2058 17.3044L17.2419 17.2938L17.278 17.2815L17.3141 17.2692L17.3502 17.2577L17.3863 17.2445L17.4224 17.2322L17.4585 17.2199L17.4946 17.2075L17.5307 17.1934L17.5668 17.1802L17.6029 17.167L17.639 17.1529L17.6751 17.1388L17.7112 17.1248L17.7473 17.1098L17.7834 17.0957L17.8195 17.0807L17.8556 17.0649L17.8917 17.0508L17.9296 17.0341L17.9657 17.0173L18.0018 17.0032L18.0379 16.9856L18.074 16.9698L18.1101 16.9531L18.1479 16.9363L18.184 16.9187L18.2201 16.9011L18.2562 16.8835L18.2923 16.8659L18.3284 16.8483L18.3645 16.8307L18.4006 16.8122L18.4367 16.7946L18.4746 16.7769L18.5107 16.7585L18.5468 16.74L18.5829 16.7215V18.3056L18.5468 18.3152L18.5107 18.3241L18.4746 18.3329L18.4367 18.3417L18.4006 18.3505L18.3645 18.3593L18.3284 18.3681L18.2923 18.376L18.2562 18.3848L18.2201 18.3927L18.1717 18.4218L18.1356 18.4306L18.0995 18.4376L18.0634 18.4447L18.0273 18.4544L17.9912 18.4614L17.9533 18.4693L17.9172 18.4764L17.8811 18.4852L17.845 18.4922L17.8089 18.4993L17.7728 18.5046L17.7367 18.5116L17.7006 18.5187L17.6645 18.5266L17.6284 18.5336L17.5923 18.5415L17.5562 18.5468L17.5201 18.5539L17.484 18.5609L17.4479 18.5662L17.4118 18.5732L17.3757 18.5794L17.3378 18.5865L17.3017 18.5917L17.2656 18.5997L17.2295 18.6049L17.1934 18.6076L17.1573 18.6146L17.1212 18.6199L17.0851 18.6252L17.049 18.6322L17.0129 18.6384L16.9751 18.6437L16.9389 18.649L16.9028 18.6551L16.8667 18.6692L16.8306 18.6745L16.7945 18.6798L16.7584 18.6851L16.7215 18.6904L16.6854 18.6939L16.6493 18.6992L16.6123 18.7044L16.5762 18.708L16.5401 18.7133L16.504 18.7168L16.4679 18.7212L16.4318 18.7265L16.3948 18.73L16.3587 18.7335L16.3235 18.7379L16.2873 18.7414L16.2495 18.7449L16.2134 18.7485L16.1773 18.752L16.1412 18.7555L16.106 18.7573L16.0699 18.759L16.0338 18.7626L15.9977 18.7661L15.9615 18.7643L15.9254 18.7678L15.8893 18.7696L15.8532 18.7731L15.8171 18.7749L15.781 18.7784L15.7449 18.7802L15.7071 18.7819L15.671 18.7837L15.6349 18.7855H15.6164H15.5988L15.5627 18.7872H15.5266L15.4905 18.789L15.4544 18.7907L15.4174 18.7934H15.3813L15.3443 18.7951H15.3082L15.2721 18.7969H15.2351L15.199 18.7987H15.162H15.1259H15.0898H15.0537L15.0176 18.8004H14.9815H14.9454H14.9093H14.8732H14.8371H14.801H14.7816H14.7455H14.7094H14.6733H14.6363L14.6002 18.7987H14.5641H14.528L14.491 18.7969H14.4549L14.4188 18.7951H14.3827L14.3466 18.7934L14.3105 18.7907L14.2736 18.789H14.2375L14.2013 18.7872L14.1652 18.7855L14.1291 18.7837L14.0957 18.789L14.0596 18.7872L14.0235 18.7855L13.9874 18.7837L13.9504 18.7802L13.9143 18.7784L13.8782 18.7749L13.8421 18.7731L13.806 18.7696L13.769 18.7678L13.7329 18.7643L13.6968 18.7608L13.6607 18.759L13.6246 18.7555L13.5885 18.752L13.5524 18.7467L13.5163 18.7432L13.4802 18.7397L13.4441 18.7361L13.4071 18.73L13.371 18.7265L13.3349 18.7212L13.2988 18.7177L13.2627 18.7115L13.2266 18.7062L13.1905 18.7009L13.1544 18.6992L13.1183 18.6921L13.0822 18.6868L13.0461 18.6816L13.01 18.6745L12.9739 18.6692L12.9369 18.6622L12.9008 18.656L12.8638 18.649L12.8277 18.6437L12.7916 18.6375L12.7555 18.6305L12.7185 18.6234L12.6824 18.6164L12.6463 18.6093L12.6102 18.6023L12.5741 18.5935L12.538 18.5847L12.501 18.5812L12.4649 18.5724L12.4288 18.5644L12.3927 18.5556L12.3566 18.5451L12.3196 18.5363L12.2835 18.5266L12.2474 18.5178L12.2113 18.5063L12.1743 18.4975L12.1382 18.4861L12.1021 18.4755L12.066 18.4649L12.0299 18.4544L11.9938 18.442L11.9569 18.4332L11.9208 18.4227C11.9093 18.4174 11.897 18.4139 11.8846 18.4103C11.8723 18.4051 11.8609 18.4015 11.8485 18.3971L11.823 18.3786L11.786 18.3663C11.7737 18.361 11.7623 18.3575 11.7499 18.3522C11.7376 18.3487 11.7262 18.3434 11.7138 18.3381L11.6777 18.3258C11.6654 18.3196 11.6539 18.3144 11.6416 18.3108L11.6055 18.2959L11.5685 18.28L11.5324 18.2659L11.4963 18.2492L11.4602 18.2325L11.4241 18.2166L11.388 18.2008L11.3519 18.1832L11.3158 18.1664L11.2797 18.1479C11.2674 18.1427 11.2559 18.1365 11.2427 18.1303L11.2066 18.1127L11.1697 18.0942L11.1335 18.0766C11.1212 18.0696 11.1098 18.0625 11.0974 18.0581C11.0851 18.0511 11.0737 18.044 11.0613 18.0396L11.0252 18.0203L10.9891 18.0018L10.953 17.9859C10.9407 17.9789 10.9293 17.9718 10.9169 17.9657C10.9046 17.9586 10.8932 17.9498 10.8808 17.9463L10.8447 17.9252C10.8324 17.9172 10.821 17.9084 10.8086 17.9032C10.7963 17.8943 10.784 17.8873 10.7716 17.8811L10.7355 17.8574C10.7232 17.8503 10.7118 17.8398 10.6986 17.8345L10.6625 17.8116C10.6501 17.8019 10.6378 17.7931 10.6264 17.786C10.614 17.7772 10.6017 17.7676 10.5903 17.7605C10.5779 17.7517 10.5665 17.7429 10.5542 17.735C10.5418 17.727 10.5304 17.7165 10.5181 17.7077C10.5057 17.6989 10.4943 17.6892 10.4819 17.6804C10.4696 17.6698 10.4573 17.6619 10.4458 17.6522C10.4194 17.6311 10.393 17.6082 10.3684 17.587V26.2339H10.4458H10.4819H10.5181H10.5542H10.5903H10.6264H10.6625H10.6986H10.7355H10.7716H10.8086H10.8447H10.8808H10.9169H10.953H10.9891H11.0252H11.0613H11.0974H11.1335H11.1697H11.2066H11.2427H11.2797H11.3158H11.3519H11.388H11.4241H11.4602H11.4963H11.5324H11.5685H11.6055H11.6416H11.6777H11.7138H11.7499H11.786H11.823H11.8591H11.8952H11.9313H11.9674H12.0044H12.0405H12.0766H12.1127H12.1488H12.1849H12.2219H12.258H12.2941H12.3302H12.3672H12.4033H12.4394H12.4755H12.5116H12.5486H12.5847H12.6208H12.6569H12.693H12.7291H12.7661H12.8022H12.8383H12.8744H12.9114H12.9475H12.9844H13.0205H13.0566H13.0928H13.1289H13.165H13.2011H13.2372H13.2733H13.3094H13.3455H13.3816H13.4177H13.4547H13.4908H13.5269H13.563H13.5991H13.6352H13.6713H13.7074H13.7435H13.7796H13.8166H13.8527H13.8888H13.9249H13.961H13.9979H14.034H14.0701H14.1063H14.1424H14.1785H14.2146H14.2507H14.2868H14.3237H14.3598H14.3959H14.4321H14.4682H14.5043H14.5412H14.5773H14.6134H14.6495H14.6865H14.7226H14.7587H14.7948H14.8309H14.867H14.9031H14.9392H14.9753H15.0114H15.0475H15.0837H15.1198H15.1559H15.192H15.2289H15.265H15.302H15.3381H15.3742H15.4112H15.4473H15.4834H15.5195H15.5556H15.5917H15.6278H15.6639H15.7018H15.7379H15.774H15.8101H15.8462H15.8823H15.8858C15.8964 26.2339 15.907 26.2339 15.9184 26.2339H15.9545C15.9668 26.2339 15.9783 26.2339 15.9906 26.2322C16.0029 26.2322 16.0144 26.2322 16.0267 26.2322C16.039 26.2322 16.0505 26.2304 16.0628 26.2304L16.0989 26.2287L16.135 26.2269C16.1473 26.2251 16.1588 26.2251 16.1711 26.2251C16.1834 26.2234 16.1949 26.2234 16.2072 26.2216L16.2442 26.2181C16.2556 26.2163 16.268 26.2163 16.2803 26.2146C16.2935 26.2128 16.3041 26.211 16.3173 26.2093C16.3296 26.2075 16.3411 26.2075 16.3534 26.2058C16.3657 26.204 16.3772 26.2022 16.3895 26.2005L16.4256 26.1952C16.4379 26.1934 16.4494 26.1917 16.4626 26.1899C16.4758 26.1882 16.4855 26.1864 16.4987 26.1846C16.5119 26.1829 16.5216 26.1811 16.5348 26.1776L16.5709 26.1714L16.607 26.1644C16.6202 26.1609 16.6316 26.1582 16.6431 26.1565C16.6563 26.1547 16.666 26.1512 16.6801 26.1476L16.7162 26.1388L16.7523 26.13C16.7655 26.1283 16.776 26.1248 16.7884 26.1212C16.8016 26.1177 16.8122 26.116 16.8245 26.1124C16.8377 26.1089 16.8483 26.1054 16.8623 26.1019C16.8738 26.0975 16.8844 26.0957 16.8984 26.0922L16.9345 26.0807L16.9706 26.0702C16.9839 26.0666 16.9944 26.0631 17.0067 26.0578C17.0191 26.0543 17.0288 26.0508 17.0429 26.0473C17.0552 26.042 17.0666 26.0385 17.079 26.0349L17.1151 26.02L17.1512 26.0068C17.1635 26.0032 17.1749 25.998 17.1873 25.9944C17.1996 25.9892 17.211 25.9839 17.2251 25.9786C17.2375 25.9751 17.2471 25.9698 17.2612 25.9645C17.2718 25.961 17.2832 25.9557 17.2973 25.9495L17.3334 25.9328L17.3695 25.9187L17.4056 25.9011C17.418 25.8958 17.4294 25.8905 17.4417 25.8835C17.4541 25.8782 17.4655 25.8729 17.4778 25.8668C17.4902 25.8597 17.5016 25.8535 17.5139 25.8483C17.5263 25.843 17.5377 25.8359 17.55 25.8298C17.5624 25.8245 17.5738 25.8174 17.5861 25.8113C17.5985 25.806 17.6099 25.7981 17.6222 25.7928L17.6584 25.7743L17.6945 25.7558L17.7306 25.7373C17.7446 25.7294 17.7543 25.7215 17.7667 25.7179C17.7807 25.71 17.7904 25.7012 17.8028 25.6968C17.8168 25.6889 17.8283 25.6818 17.8389 25.6766C17.853 25.6678 17.8626 25.6607 17.875 25.6545C17.8891 25.6475 17.8987 25.6387 17.9111 25.6325C17.9252 25.6237 17.9348 25.6149 17.9489 25.6096C17.9613 25.6017 17.9727 25.5929 17.985 25.5867C17.9974 25.5806 18.007 25.57 18.0211 25.5612C18.0335 25.5542 18.0449 25.5445 18.0572 25.5374C18.0713 25.5286 18.081 25.5198 18.0933 25.5119C18.1074 25.5031 18.1171 25.4943 18.1294 25.4864C18.1435 25.4776 18.1532 25.4679 18.1673 25.4591C18.1796 25.4503 18.1893 25.4415 18.2034 25.4327C18.2157 25.423 18.2254 25.4142 18.2395 25.4045C18.2518 25.3948 18.2615 25.386 18.2756 25.3754C18.2879 25.364 18.2994 25.3569 18.3117 25.3446C18.3258 25.334 18.3355 25.3261 18.3478 25.3155C18.3619 25.3032 18.3716 25.2935 18.3839 25.283C18.398 25.2706 18.4077 25.2627 18.42 25.2504C18.4341 25.2398 18.4438 25.2301 18.4561 25.2178C18.4702 25.2055 18.4799 25.1958 18.494 25.1835C18.5063 25.1711 18.516 25.1614 18.5301 25.1474C18.5424 25.135 18.5539 25.1253 18.5662 25.1113C18.5785 25.0989 18.59 25.0875 18.6023 25.0752C18.6164 25.0611 18.6261 25.0496 18.6384 25.0373C18.6525 25.0232 18.6622 25.0118 18.6745 24.9977C18.6868 24.9853 18.6983 24.9721 18.7106 24.958C18.7229 24.944 18.7344 24.9307 18.7467 24.9167C18.759 24.9008 18.7705 24.8876 18.7828 24.8735C18.7951 24.8577 18.8066 24.8427 18.8189 24.8268C18.8312 24.8119 18.8427 24.7978 18.855 24.7819C18.8673 24.7652 18.8788 24.7511 18.8911 24.7344C18.9034 24.7177 18.9149 24.7018 18.9272 24.6851C18.9395 24.6675 18.951 24.6507 18.9633 24.6349C18.9756 24.6164 18.9871 24.5988 19.0012 24.5812C19.0135 24.5627 19.0232 24.5451 19.0373 24.5266C19.0478 24.5081 19.0593 24.4905 19.0734 24.472C19.0857 24.4535 19.0972 24.4341 19.1095 24.4139C19.1218 24.3936 19.1333 24.3742 19.1438 24.354C19.1579 24.3329 19.1694 24.3108 19.1799 24.2897C19.194 24.2686 19.2055 24.2457 19.2178 24.2228C19.2301 24.2017 19.2416 24.1752 19.2539 24.1523C19.2662 24.1295 19.2777 24.103 19.29 24.0784C19.3023 24.0537 19.3138 24.0255 19.3261 24.0009C19.3384 23.9718 19.3499 23.9454 19.3622 23.9155C19.3763 23.8855 19.386 23.8565 19.3983 23.8239C19.4124 23.7913 19.4221 23.7587 19.4344 23.7262C19.4485 23.6901 19.4599 23.654 19.4705 23.6179C19.4846 23.5782 19.496 23.5386 19.5066 23.4972C19.5207 23.4506 19.5321 23.4048 19.5427 23.3581C19.5586 23.3035 19.5682 23.2463 19.5806 23.1908C19.5947 23.1168 19.6061 23.0429 19.6167 22.9663C19.636 22.8078 19.6475 22.6493 19.6475 22.4864V3.76608H19.5806Z" fill="#A5A5A5"/>
<path d="M9.23775 3.76608H9.18403H9.14793H9.11183H9.07573H9.03962H9.00352H8.96654H8.93044H8.89433H8.85823H8.82213H8.78603H8.74993H8.7147H8.67948H8.6425H8.6064H8.5703H8.53419H8.49809H8.46199H8.42589H8.38978H8.35368H8.31758H8.28148H8.2445H8.20839H8.17141H8.13531H8.09921H8.0631H8.027H7.9909H7.95744H7.92134H7.88524H7.84913H7.81215H7.77605H7.73907H7.70384H7.66774H7.63164H7.59466H7.55767H7.52157H7.48635H7.45025H7.41327H7.37716H7.34018H7.30408H7.26798H7.23452H7.19841H7.16143H7.12533H7.08923H7.05313H7.01614H6.98004H6.94394H6.90784H6.87173H6.83475H6.79865H6.76167H6.72556H6.68946H6.65336H6.61726H6.58116H6.54417H6.50807H6.47725H6.44115H6.40505H6.36895H6.33284H6.29586H6.25976H6.22366H6.18755H6.15057H6.11623H6.08013H6.04403H6.00792H5.97182H5.93484H5.89874H5.86264H5.82653H5.79043H5.75521H5.71911H5.68301H5.6469H5.6108H5.57382H5.53772H5.50161H5.46551H5.42941H5.39419H5.35897H5.32286H5.28676H5.25066H5.21368H5.17758H5.14147H5.10537H5.06927H5.03317H4.99795H4.96184H4.92574H4.88964H4.85266H4.81655H4.77957H4.74347H4.70737H4.67038H4.63692H4.60082H4.56472H4.52862H4.49252H4.45641H4.42031H4.38333H4.34723H4.31112H4.27502H4.24068H4.20458H4.1676H4.13149H4.09539H4.05929H4.02319H3.9862H3.9501H3.91488H3.87966H3.84356H3.80745H3.77047H3.7511H3.73437C3.72204 3.76608 3.7106 3.76608 3.69827 3.76608C3.68594 3.76608 3.67449 3.76608 3.66217 3.76608C3.64984 3.76608 3.63839 3.76872 3.62606 3.76961L3.58996 3.77049C3.57763 3.77049 3.56619 3.77137 3.55386 3.77225C3.54153 3.77225 3.53008 3.77401 3.51776 3.77401C3.50543 3.77401 3.49398 3.77401 3.48166 3.77665C3.46933 3.77753 3.45788 3.77753 3.44467 3.77753L3.40857 3.78193C3.39624 3.78281 3.38392 3.78369 3.37159 3.78457C3.36014 3.78457 3.34781 3.78722 3.33549 3.7881L3.29938 3.79338L3.26328 3.79602C3.25095 3.79866 3.23951 3.79954 3.22718 3.80307C3.21573 3.80307 3.20252 3.80659 3.19108 3.80747C3.17875 3.80747 3.1673 3.81099 3.15497 3.81187L3.11887 3.81892C3.10655 3.81892 3.09422 3.82332 3.08189 3.82596C3.06956 3.8286 3.05812 3.83036 3.04579 3.833C3.03434 3.83477 3.02201 3.83476 3.00969 3.84005C2.99736 3.84181 2.98503 3.84533 2.9727 3.84621L2.9366 3.85326C2.92427 3.85766 2.91283 3.8603 2.89962 3.86382C2.88817 3.8647 2.87584 3.86999 2.86352 3.87175C2.85119 3.87439 2.83974 3.87615 2.82741 3.88055C2.81509 3.88319 2.80276 3.8876 2.79131 3.89024L2.75433 3.89904C2.742 3.90345 2.73055 3.90609 2.71823 3.90961C2.7059 3.91313 2.69445 3.91754 2.68212 3.92106C2.67068 3.92458 2.65835 3.92722 2.64602 3.9325C2.6337 3.93603 2.62225 3.94043 2.60992 3.94395L2.57382 3.95628L2.53684 3.96773C2.52451 3.97301 2.51306 3.97477 2.50073 3.98181C2.48929 3.98534 2.47696 3.98974 2.46463 3.99326C2.4523 3.99766 2.44086 4.00295 2.42853 4.00735L2.40035 4.02056L2.36337 4.03465L2.32727 4.0505C2.31494 4.0549 2.30349 4.06018 2.29117 4.06547C2.27972 4.06899 2.26739 4.07603 2.25506 4.08044C2.24274 4.08748 2.23041 4.09188 2.21808 4.09629C2.20575 4.10333 2.19431 4.10773 2.18198 4.1139C2.16965 4.12006 2.1582 4.12622 2.14588 4.13151C2.13443 4.13767 2.1221 4.14207 2.10977 4.14912L2.07367 4.16761C2.06134 4.17465 2.04902 4.17906 2.03757 4.18698C2.02524 4.19403 2.0138 4.20019 2.00059 4.20635C1.98914 4.21252 1.97681 4.2178 1.96448 4.22484C1.95216 4.23189 1.93983 4.23893 1.92838 4.24598C1.91606 4.25214 1.90461 4.2583 1.89228 4.26359C1.87995 4.27063 1.86851 4.28032 1.85618 4.28648C1.84385 4.29353 1.83152 4.30057 1.8192 4.30762C1.80687 4.31466 1.79542 4.32258 1.78309 4.32787C1.77077 4.33491 1.75932 4.3446 1.74699 4.35076C1.73554 4.35781 1.72322 4.36749 1.71089 4.37366C1.69856 4.37982 1.68711 4.39039 1.67479 4.39655C1.66246 4.40535 1.65013 4.41416 1.63868 4.42208C1.62636 4.43089 1.61491 4.43793 1.6017 4.4485C1.59026 4.45643 1.57793 4.46347 1.5656 4.47228L1.5295 4.50045C1.51717 4.50926 1.50572 4.51806 1.4934 4.52775C1.48107 4.53744 1.46874 4.54624 1.45641 4.55417C1.44409 4.56473 1.43264 4.57354 1.42031 4.58234C1.40798 4.59379 1.39654 4.60083 1.38421 4.61228C1.37276 4.62285 1.36043 4.63341 1.34811 4.64222C1.33578 4.65367 1.32433 4.66247 1.312 4.6748C1.29968 4.68361 1.28823 4.69505 1.27502 4.70386C1.26357 4.7153 1.25125 4.72675 1.23892 4.73644C1.22659 4.74877 1.21515 4.75933 1.20194 4.77078C1.19049 4.78223 1.17816 4.79103 1.16584 4.80248C1.15351 4.81657 1.14206 4.82537 1.12973 4.83946C1.11741 4.85091 1.10596 4.86236 1.09363 4.87644C1.0813 4.88877 1.06986 4.90022 1.05753 4.91255C1.0452 4.92399 1.03287 4.93808 1.02143 4.94953C1.0091 4.96362 0.996771 4.97594 0.984444 4.98827C0.972116 5.00324 0.960669 5.01645 0.948342 5.02878C0.936014 5.04375 0.924567 5.05695 0.911359 5.07104C0.899031 5.08249 0.887584 5.09834 0.875257 5.11331C0.862929 5.1274 0.851482 5.13973 0.839155 5.15557C0.826827 5.17142 0.814499 5.18551 0.803052 5.20224C0.790725 5.21545 0.778397 5.2313 0.76695 5.24803C0.754623 5.26476 0.743176 5.27973 0.729968 5.29558C0.718521 5.31319 0.706193 5.32904 0.693866 5.34577C0.681538 5.36338 0.670091 5.38099 0.657763 5.39684C0.645436 5.41621 0.633108 5.43383 0.621661 5.45144C0.608453 5.46905 0.597006 5.48842 0.584679 5.50603C0.572351 5.52628 0.560904 5.54565 0.548576 5.56415C0.536249 5.5844 0.524802 5.60553 0.512474 5.62578C0.500147 5.64692 0.487819 5.66717 0.476372 5.6883C0.464045 5.7112 0.451717 5.73145 0.44027 5.75434C0.427942 5.77724 0.415615 5.80013 0.404168 5.82302C0.39184 5.84856 0.379513 5.87233 0.367185 5.89787C0.354858 5.92164 0.343411 5.94806 0.331083 5.97448C0.318755 6.00177 0.307308 6.02995 0.294981 6.05461C0.282653 6.08719 0.270326 6.11448 0.258879 6.14618C0.245671 6.17612 0.235104 6.20958 0.222777 6.2404C0.210449 6.27562 0.198122 6.31084 0.185794 6.34606C0.173466 6.38481 0.162019 6.42443 0.149692 6.46406C0.137364 6.50808 0.124156 6.55211 0.11359 6.59702C0.100382 6.64897 0.088054 6.69916 0.0774875 6.75287C0.0264162 6.99943 0 7.2539 0 7.51542V16.7629C0.0264162 16.7769 0.0519519 16.7875 0.0774875 16.8007L0.11359 16.8183L0.149692 16.8359L0.185794 16.8544L0.222777 16.8712L0.258879 16.8888L0.294981 16.9064L0.331083 16.9222L0.367185 16.9407L0.404168 16.9548L0.44027 16.9724L0.476372 16.9883L0.512474 17.005L0.548576 17.0217L0.584679 17.0367L0.621661 17.0517L0.657763 17.0675L0.693866 17.0834L0.729968 17.0983L0.76695 17.1133L0.803052 17.1283L0.839155 17.1424L0.875257 17.1573L0.911359 17.1705L0.948342 17.1855L0.984444 17.1987L1.02143 17.211L1.05753 17.226L1.09363 17.2392L1.12973 17.2516L1.16584 17.2656L1.20194 17.278L1.23892 17.2885L1.27502 17.3026L1.312 17.315L1.34811 17.3273L1.38421 17.3378L1.42031 17.3484L1.45641 17.359L1.4934 17.3713L1.5295 17.381L1.5656 17.3924L1.6017 17.403L1.63868 17.4127L1.67479 17.4215L1.71089 17.4312L1.74699 17.44L1.78309 17.4514L1.8192 17.4602L1.85618 17.4699L1.89228 17.4787L1.92838 17.4875L1.96448 17.4955L2.00059 17.5034L2.03757 17.5104L2.07367 17.5175L2.10977 17.5263L2.14588 17.5333L2.18198 17.5421L2.21808 17.5474L2.25506 17.5545L2.29117 17.5597L2.32727 17.5668L2.36337 17.573L2.40035 17.5791L2.43645 17.5844L2.47256 17.5879L2.50866 17.5932L2.54476 17.5994L2.58174 17.6038L2.61785 17.6073L2.65395 17.6117L2.69005 17.6161L2.72615 17.6196L2.76225 17.6231L2.79924 17.6249L2.83534 17.6284L2.87144 17.6302L2.90754 17.6337H2.94453L2.98063 17.6355L3.01761 17.6381L3.05371 17.6399L3.08981 17.6408L3.1268 17.6416H3.1629L3.199 17.6425H3.2351H3.25712H3.27121C3.28353 17.6425 3.29498 17.6425 3.30731 17.6425L3.34341 17.6416C3.35486 17.6416 3.36807 17.6416 3.37951 17.6408C3.39184 17.6408 3.40417 17.6399 3.4165 17.639C3.42882 17.6381 3.44027 17.6381 3.4526 17.6372C3.46493 17.6355 3.47637 17.6355 3.48958 17.6337C3.50103 17.6337 3.51335 17.6337 3.52568 17.6319C3.53801 17.6302 3.54946 17.6302 3.56178 17.6284L3.59789 17.6249C3.61021 17.6231 3.62166 17.6214 3.63399 17.6196C3.64632 17.6196 3.65776 17.6179 3.67009 17.6143L3.70619 17.6091C3.71852 17.6073 3.72997 17.6046 3.7423 17.6029C3.75462 17.6002 3.76607 17.5967 3.7784 17.595C3.79072 17.5932 3.80305 17.5897 3.81538 17.5879C3.82771 17.5862 3.83915 17.5826 3.85148 17.5809C3.86381 17.5774 3.87526 17.5747 3.88758 17.5721C3.89903 17.5685 3.91136 17.5659 3.92369 17.5624C3.93601 17.558 3.94746 17.5562 3.95979 17.5527C3.97212 17.5492 3.98444 17.5457 3.99589 17.5421C4.00822 17.5377 4.01967 17.5342 4.03287 17.5298C4.04432 17.5263 4.05665 17.521 4.06898 17.5175C4.0813 17.5122 4.09275 17.5087 4.10508 17.5051C4.11741 17.4999 4.12885 17.4955 4.14118 17.4911C4.15351 17.4867 4.16495 17.4823 4.17728 17.477C4.18961 17.4717 4.20194 17.4664 4.21426 17.4602C4.22659 17.455 4.23804 17.4497 4.25037 17.4435C4.26269 17.4382 4.27414 17.4312 4.28647 17.4259C4.29792 17.4206 4.31024 17.4145 4.32257 17.4083C4.3349 17.4012 4.34723 17.396 4.35867 17.3898C4.371 17.3828 4.38333 17.3766 4.39478 17.3695C4.4071 17.3643 4.41855 17.3572 4.43176 17.3511C4.4432 17.344 4.45553 17.337 4.46786 17.3308C4.48019 17.3238 4.49163 17.3141 4.50396 17.3088C4.51629 17.3 4.52774 17.2912 4.54006 17.285C4.55239 17.2762 4.56384 17.2674 4.57617 17.2595C4.58849 17.2507 4.59994 17.241 4.61227 17.2331C4.6246 17.2234 4.63604 17.2146 4.64837 17.2049C4.6607 17.1952 4.67215 17.1864 4.68447 17.1758C4.69768 17.1635 4.70913 17.1538 4.72146 17.1432C4.73378 17.1309 4.74523 17.1212 4.75756 17.1089C4.76989 17.0957 4.78133 17.0851 4.79366 17.071C4.80599 17.0578 4.81832 17.0455 4.83064 17.0332C4.84297 17.0182 4.85442 17.0059 4.86674 16.9918C4.87907 16.9751 4.8914 16.9627 4.90373 16.9451C4.91605 16.9275 4.9275 16.9134 4.93983 16.8949C4.95216 16.8791 4.96448 16.8624 4.97593 16.843C4.98826 16.8245 5.00059 16.8051 5.01203 16.7866C5.02436 16.7673 5.03669 16.7452 5.04814 16.725C5.06046 16.703 5.07279 16.6766 5.08424 16.6545C5.09657 16.6308 5.10889 16.6008 5.12034 16.5753C5.13355 16.5295 5.145 16.5005 5.15644 16.4679C5.16965 16.4318 5.18198 16.3957 5.19254 16.3578C5.20663 16.3094 5.21896 16.2636 5.22865 16.2134C5.24538 16.1341 5.2577 16.0514 5.26563 15.9695C5.27091 15.9043 5.27355 15.8374 5.27355 15.7678V11.4224H5.30085H5.33695H5.37306H5.39419H5.43117H5.46727H5.50338H5.53948H5.57558H5.61256H5.64866H5.68477H5.72087H5.75697H5.79307H5.82917H5.86528H5.90138H5.93748H5.97446H6.01057H6.04667H6.08277H6.11887H6.15497H6.19196H6.22806H6.26416H6.30026H6.33725H6.37335H6.40945H6.44555H6.48166H6.51864H6.55474H6.59172H6.62782H6.66393H6.70003H6.73613H6.77223H6.80922H6.84532H6.8823H6.9184H6.9545H6.99061H7.02671H7.06369H7.09979H7.1359H7.172H7.20898H7.24508H7.28119H7.31729H7.35339H7.38949H7.42647H7.46258H7.49868H7.53478H7.57088H7.60787H7.64397H7.68007H7.71617H7.75227H7.78838H7.82536H7.86146H7.89844H7.93455H7.97065H8.00675H8.04285H8.07895H8.11506H8.15116H8.18726H8.22424H8.26035H8.29733H8.33343H8.36953H8.40563H8.44174H8.47784H8.49545V15.7687C8.49545 15.8955 8.49017 16.0197 8.47784 16.1421C8.46903 16.2292 8.45671 16.3155 8.44174 16.4001C8.43117 16.4555 8.41972 16.5137 8.40563 16.5683C8.39507 16.6149 8.38274 16.6598 8.36953 16.7021C8.35809 16.74 8.34664 16.7769 8.33343 16.8139C8.32198 16.8465 8.31054 16.8773 8.29733 16.9099C8.28588 16.939 8.27355 16.9671 8.26035 16.9971C8.2489 17.0235 8.23657 17.0517 8.22424 17.0763C8.2128 17.0992 8.20047 17.1256 8.18726 17.1485C8.17581 17.1697 8.16349 17.1943 8.15116 17.2146C8.13883 17.2348 8.12738 17.256 8.11506 17.2744C8.10273 17.2938 8.09128 17.3141 8.07895 17.3326C8.06751 17.3502 8.05518 17.3687 8.04285 17.3863C8.03053 17.4048 8.01908 17.4224 8.00675 17.44C7.99442 17.4576 7.98298 17.4726 7.97065 17.4902C7.95832 17.506 7.94687 17.5192 7.93455 17.5351C7.9231 17.5501 7.91077 17.5641 7.89844 17.5782C7.887 17.5932 7.87467 17.6073 7.86234 17.6214C7.85089 17.6355 7.83857 17.6487 7.82624 17.661C7.81391 17.6751 7.80246 17.6865 7.78926 17.6989C7.77781 17.7112 7.76548 17.7226 7.75316 17.735C7.74171 17.7473 7.73026 17.7587 7.71705 17.7711C7.70561 17.7834 7.69328 17.7931 7.68095 17.8045C7.66862 17.816 7.65718 17.8257 7.64485 17.838C7.63252 17.8486 7.62107 17.8582 7.60875 17.8688C7.59642 17.8785 7.58497 17.8873 7.57176 17.8979C7.56032 17.9084 7.54887 17.9164 7.53566 17.926C7.52421 17.9375 7.51189 17.9445 7.49956 17.9533C7.48811 17.9648 7.47578 17.9718 7.46346 17.9798C7.45113 17.9894 7.43968 17.9983 7.42736 18.0053C7.41503 18.0141 7.40358 18.0238 7.39037 18.03C7.37892 18.0396 7.3666 18.0467 7.35427 18.0528C7.34194 18.0617 7.3305 18.0705 7.31817 18.0766C7.30672 18.0854 7.29439 18.0933 7.28207 18.0986C7.26974 18.1057 7.25829 18.1145 7.24596 18.1189C7.23364 18.1277 7.22219 18.1356 7.20986 18.14C7.19753 18.1479 7.18609 18.155 7.17288 18.1612C7.16143 18.1682 7.1491 18.1752 7.13678 18.1814C7.12533 18.1867 7.113 18.1937 7.10067 18.199C7.08835 18.2061 7.0769 18.2131 7.06457 18.2175C7.05224 18.2245 7.0408 18.2298 7.02759 18.236C7.01614 18.2422 7.00382 18.2483 6.99149 18.2545C6.98004 18.2598 6.96771 18.2651 6.95539 18.2703C6.94394 18.2774 6.93161 18.2835 6.91928 18.2888L6.88318 18.3064L6.8462 18.324C6.83475 18.3302 6.82242 18.3355 6.8101 18.3425C6.79777 18.3461 6.78544 18.3522 6.77311 18.3575L6.73613 18.3742L6.70003 18.391C6.6877 18.3954 6.67625 18.3998 6.66393 18.4059C6.6516 18.4112 6.64015 18.4165 6.62782 18.42C6.61638 18.4253 6.60317 18.4297 6.59172 18.4341L6.55474 18.4482C6.54241 18.4517 6.53097 18.457 6.51864 18.4605C6.50631 18.4667 6.49486 18.4702 6.48166 18.4746L6.44555 18.4852L6.40945 18.4975C6.39712 18.501 6.3848 18.5054 6.37335 18.509L6.33725 18.5195L6.30026 18.5301C6.28882 18.5336 6.27649 18.5389 6.26416 18.5424L6.22806 18.5548C6.21661 18.5583 6.20429 18.56 6.19196 18.5636C6.17963 18.5671 6.1673 18.5706 6.15497 18.5741L6.11887 18.5838C6.10654 18.5873 6.0951 18.5917 6.08277 18.5935C6.07132 18.597 6.059 18.6005 6.04667 18.6041L6.01057 18.6137C5.99824 18.6164 5.98679 18.6199 5.97446 18.6226C5.96214 18.6252 5.95069 18.6287 5.93748 18.6322L5.90138 18.6393C5.88905 18.6428 5.8776 18.6446 5.86528 18.6481L5.82917 18.6534L5.79307 18.6604C5.78075 18.6639 5.7693 18.6657 5.75697 18.6692L5.72087 18.6763L5.68477 18.6842L5.64866 18.6912C5.63546 18.693 5.62489 18.6939 5.61256 18.6965C5.60023 18.6983 5.58791 18.7 5.57558 18.7036L5.53948 18.7088C5.52803 18.7124 5.5157 18.7141 5.50338 18.7159L5.46727 18.7212L5.43117 18.7273L5.39419 18.7088C5.38274 18.7115 5.37129 18.7124 5.35809 18.715L5.32198 18.7212L5.28588 18.7229L5.24978 18.7282L5.2128 18.7309L5.17669 18.7353L5.14059 18.7405L5.10449 18.7441L5.06839 18.7476L5.03229 18.7529L4.99618 18.7564L4.96008 18.7599L4.92398 18.7643L4.88788 18.7661L4.85089 18.7696L4.81479 18.7731L4.77781 18.7749L4.74171 18.7766L4.70561 18.7784L4.66862 18.7819L4.63252 18.7837L4.60082 18.789L4.56472 18.7907L4.52862 18.7925L4.49252 18.7943H4.45641L4.42031 18.7951L4.38333 18.7969L4.34723 18.7995L4.31112 18.8013H4.27502L4.23892 18.8031H4.20282L4.16583 18.8048H4.12973L4.09363 18.8066H4.05753H4.02143H3.98444H3.94834H3.91488H3.87878H3.85677H3.84268H3.80657H3.76959H3.73349H3.69739H3.66129H3.62518H3.58908L3.55298 18.8048H3.51688H3.48077H3.44379L3.40769 18.8039H3.37071L3.3346 18.8022H3.2985L3.2624 18.7995H3.2263L3.1902 18.7978L3.15409 18.796L3.11799 18.7943L3.08101 18.7925L3.04931 18.7881L3.01321 18.7863L2.97623 18.7837L2.94012 18.7819L2.90314 18.7802L2.86704 18.7766L2.83094 18.7749L2.79483 18.7731L2.75785 18.7696L2.72175 18.7678L2.68565 18.7652L2.64954 18.7643L2.61344 18.7608L2.57734 18.759L2.54036 18.7555L2.50426 18.7538L2.46815 18.7502L2.43205 18.7467L2.40035 18.7414L2.36337 18.7379L2.32727 18.7344L2.29117 18.7309L2.25506 18.7273L2.21808 18.7238L2.18198 18.7185L2.14588 18.715L2.10977 18.7115L2.07367 18.708L2.03757 18.7044L2.00059 18.6992L1.96448 18.6956L1.92838 18.6921L1.89228 18.6886L1.85618 18.6833L1.8192 18.6789L1.78309 18.6736L1.74699 18.6701L1.71089 18.6648L1.67479 18.6595L1.63868 18.6543L1.6017 18.6507L1.5656 18.6454L1.5295 18.6384L1.4934 18.6349L1.45641 18.6296L1.42031 18.6234L1.38421 18.6181L1.34811 18.6129L1.312 18.6067L1.27502 18.6014L1.23892 18.5961L1.20194 18.5909L1.16584 18.5838L1.12973 18.5785L1.09363 18.5715L1.05753 18.5662L1.02143 18.56L0.984444 18.553L0.948342 18.5468L0.911359 18.5398L0.875257 18.5319L0.839155 18.5266L0.803052 18.5204L0.76695 18.5134L0.729968 18.5063L0.693866 18.4993L0.657763 18.4922L0.621661 18.4834L0.584679 18.4764L0.548576 18.4676L0.512474 18.4597L0.476372 18.4526L0.44027 18.4464L0.404168 18.4376L0.367185 18.4288L0.331083 18.4218L0.294981 18.413L0.258879 18.4042L0.222777 18.3945L0.185794 18.3848L0.149692 18.376L0.11359 18.3672L0.0774875 18.3584C0.0264162 18.3469 0 18.3399 0 18.3399V26.2331H0.0774875H0.11359H0.149692H0.199002H0.235985H0.272087H0.308189H0.344291H0.380393H0.417376H0.453478H0.48958H0.525682H0.561785H0.597887H0.634869H0.670972H0.707074H0.743176H0.780158H0.816261H0.852363H0.888465H0.924567H0.96155H0.997652H1.03463H1.07074H1.10684H1.14294H1.17904H1.21515H1.25213H1.28823H1.32521H1.36131H1.39742H1.43352H1.46962H1.5066H1.54271H1.57881H1.61491H1.65189H1.688H1.7241H1.7602H1.7963H1.8324H1.86939H1.90549H1.94159H1.97769H2.01379H2.05078H2.08688H2.12298H2.15908H2.19519H2.23129H2.26827H2.30437H2.34048H2.37658H2.40035H2.43645H2.47256H2.50866H2.54476H2.58174H2.61785H2.65395H2.69005H2.72615H2.76225H2.79924H2.83534H2.87144H2.90754H2.94453H2.98063H3.01761H3.05371H3.08981H3.1268H3.1629H3.199H3.2351H3.27121H3.30731H3.34341H3.37951H3.4165H3.4526H3.48958H3.52568H3.56178H3.59789H3.63399H3.67009H3.70619H3.7423H3.7784H3.81538H3.85148H3.88758H3.92369H3.95979H3.99589H4.03287H4.06898H4.10508H4.14118H4.17728H4.21426H4.25037H4.28647H4.32257H4.35867H4.39478H4.43176H4.46786H4.50396H4.54006H4.57617H4.61227H4.64837H4.68447H4.72146H4.75756H4.79366H4.83064H4.86674H4.90373H4.93983H4.97593H5.01203H5.04814H5.08424H5.12034H5.15644H5.19254H5.22865H5.26563H5.30173H5.33783H5.37394H5.39419H5.43117H5.46727H5.50338H5.50602C5.51746 26.2331 5.52803 26.2331 5.53948 26.2331H5.57558C5.58791 26.2331 5.60023 26.2331 5.61256 26.2313C5.62489 26.2313 5.63634 26.2313 5.64866 26.2313C5.66011 26.2313 5.67244 26.2295 5.68477 26.2295L5.72087 26.2278L5.75697 26.226C5.7693 26.2243 5.78075 26.2243 5.79307 26.2243C5.8054 26.2225 5.81685 26.2225 5.82917 26.2207L5.86528 26.2172C5.8776 26.2163 5.88905 26.2155 5.90138 26.2137C5.91371 26.2119 5.92515 26.2102 5.93748 26.2084C5.94981 26.2066 5.96126 26.2066 5.97446 26.2049C5.98679 26.2031 5.99824 26.2014 6.01057 26.1996L6.04667 26.1961C6.05812 26.1943 6.07044 26.1926 6.08277 26.189C6.0951 26.1873 6.10654 26.1855 6.11887 26.1838C6.1312 26.1811 6.14265 26.1793 6.15497 26.1767L6.19196 26.1705C6.2034 26.1688 6.21573 26.1644 6.22806 26.1626C6.24039 26.1591 6.25183 26.1573 6.26416 26.1556C6.27649 26.1538 6.28794 26.1503 6.30026 26.1468L6.33725 26.1388L6.37335 26.1292C6.38568 26.1274 6.39712 26.1239 6.40945 26.1204C6.4209 26.1186 6.43323 26.1151 6.44555 26.1115C6.45788 26.108 6.46933 26.1045 6.48166 26.101C6.49398 26.0966 6.50543 26.0948 6.51864 26.0913L6.55474 26.0798L6.59172 26.0693C6.60317 26.0658 6.6155 26.0622 6.62782 26.057C6.64015 26.0534 6.6516 26.0499 6.66393 26.0464C6.67625 26.0411 6.6877 26.0376 6.70003 26.0341L6.73613 26.0191L6.77223 26.0059C6.78456 26.0024 6.79689 25.9971 6.80922 25.9927C6.82154 25.9883 6.83299 25.983 6.84532 25.9777C6.85765 25.9742 6.86909 25.9707 6.8823 25.9654C6.89463 25.9601 6.90608 25.9539 6.9184 25.9486C6.92985 25.9442 6.94218 25.9372 6.9545 25.9319L6.99061 25.9161L7.02671 25.9002C7.03904 25.8949 7.05048 25.8897 7.06369 25.8826C7.07514 25.8773 7.08747 25.8712 7.09979 25.8659C7.11212 25.858 7.12357 25.8527 7.1359 25.8474C7.14822 25.8412 7.15967 25.8351 7.172 25.8289C7.18521 25.8227 7.19665 25.8174 7.20898 25.8104C7.22131 25.8034 7.23276 25.7963 7.24508 25.7919L7.28119 25.7734C7.29263 25.7664 7.30496 25.7593 7.31729 25.7532C7.32962 25.7461 7.34106 25.7391 7.35339 25.7356C7.36572 25.7267 7.37805 25.7197 7.38949 25.7153C7.40182 25.7083 7.41327 25.7012 7.42647 25.6942C7.43792 25.6871 7.45025 25.6792 7.46258 25.673C7.4749 25.666 7.48723 25.6572 7.49868 25.651C7.51101 25.6422 7.52245 25.6352 7.53478 25.6308C7.54711 25.6211 7.55856 25.6132 7.57088 25.607C7.58321 25.6 7.59554 25.5911 7.60787 25.5841C7.61931 25.5762 7.63164 25.5674 7.64397 25.5594C7.6563 25.5506 7.66774 25.5427 7.68007 25.5357C7.69152 25.5269 7.70384 25.5181 7.71617 25.5101C7.7285 25.4996 7.74083 25.4916 7.75227 25.4846C7.7646 25.4749 7.77605 25.4661 7.78838 25.4573C7.8007 25.4467 7.81215 25.4388 7.82536 25.43C7.83681 25.4212 7.84913 25.4115 7.86146 25.4018C7.87379 25.3921 7.88524 25.3825 7.89756 25.3719C7.90989 25.3622 7.92134 25.3534 7.93367 25.3428C7.94599 25.3314 7.95744 25.3235 7.96977 25.312C7.98209 25.3014 7.99354 25.2918 8.00587 25.2794C8.0182 25.2689 8.02964 25.2601 8.04197 25.2477C8.0543 25.2363 8.06575 25.2266 8.07807 25.2134C8.0904 25.202 8.10185 25.1923 8.11418 25.1799C8.1265 25.1658 8.13795 25.1579 8.15028 25.1447C8.16261 25.1315 8.17405 25.1201 8.18638 25.1086C8.19871 25.0936 8.21104 25.0857 8.22336 25.0716C8.23569 25.0575 8.24714 25.0461 8.25947 25.0338C8.27179 25.0197 8.28324 25.0082 8.29645 24.995C8.30878 24.9801 8.32022 24.9677 8.33255 24.9536C8.34488 24.9387 8.35632 24.9263 8.36865 24.9114C8.38098 24.8973 8.39331 24.8832 8.40475 24.8682C8.41708 24.8524 8.42853 24.8392 8.44086 24.8233C8.45318 24.8075 8.46463 24.7943 8.47696 24.7775C8.48929 24.7608 8.50073 24.7458 8.51306 24.73C8.52539 24.7141 8.53683 24.6974 8.54916 24.6815C8.56149 24.6631 8.57294 24.6472 8.58527 24.6296C8.59759 24.6111 8.60992 24.5944 8.62137 24.5759C8.6337 24.5574 8.64602 24.5398 8.65747 24.5213C8.6698 24.5028 8.68212 24.4834 8.69445 24.4658C8.70678 24.4473 8.71823 24.4262 8.73055 24.4086C8.74288 24.3901 8.75521 24.369 8.76666 24.3496C8.77898 24.3276 8.79131 24.3056 8.80276 24.2844C8.81509 24.2633 8.82653 24.2413 8.83886 24.2175C8.85119 24.1955 8.86352 24.1708 8.87496 24.1471C8.88729 24.1233 8.89874 24.0986 8.91107 24.0731C8.92339 24.0484 8.93572 24.0211 8.94717 23.9956C8.95949 23.9674 8.97182 23.9393 8.98327 23.9111C8.99648 23.8803 9.00793 23.8512 9.02025 23.8195C9.03258 23.7869 9.04403 23.7543 9.05635 23.7226C9.06868 23.6865 9.08101 23.6504 9.09246 23.6143C9.10478 23.5747 9.11711 23.5333 9.12856 23.4928C9.14177 23.4453 9.15409 23.4012 9.16466 23.3546C9.17787 23.3 9.1902 23.2419 9.20076 23.1864C9.21485 23.1124 9.22718 23.0367 9.23775 22.961C9.25712 22.8025 9.26856 22.6431 9.26856 22.4811V3.76608H9.23775Z" fill="#A5A5A5"/>
<path d="M29.9842 3.76166H29.9208V3.76606H29.8855H29.8494H29.8133H29.7772H29.7411H29.705H29.6689H29.6319H29.5958H29.5597H29.5219H29.4875H29.4514H29.4153H29.3792H29.3431H29.307H29.2709H29.2331H29.197H29.1609H29.1265H29.0886H29.0525H29.0164H28.9803H28.9442H28.909H28.8729H28.8368H28.8007H28.7646H28.7285H28.6924H28.6563H28.6202H28.5841H28.5462H28.5101H28.474H28.4397H28.4036H28.3675H28.3314H28.2953H28.2592H28.2231H28.187H28.1491H28.1139H28.076H28.0399H28.0038H27.9677H27.9316H27.8955H27.8594H27.8233H27.7854H27.7529H27.7168H27.6807H27.6446H27.6085H27.5724H27.5363H27.5002H27.4641H27.4279H27.3918H27.3557H27.3179H27.2809H27.2448H27.2087H27.1726H27.1365H27.1004H27.066H27.0282H26.9921H26.956H26.9199H26.8838H26.8459H26.8098H26.7737H26.7376H26.705H26.6672H26.6311H26.595H26.5589H26.5236H26.4875H26.4514H26.4153H26.3792H26.3431H26.307H26.2709H26.2348H26.1987H26.1609H26.1248H26.0886H26.0525H26.0182H25.9821H25.946H25.9099H25.8738H25.8377H25.8016H25.7655H25.7276H25.6924H25.6563H25.6202H25.5841H25.548H25.5101H25.474H25.4379H25.4018H25.3657H25.3314H25.2935H25.2592H25.2231H25.1852H25.1491H25.113H25.0769H25.0408H25.0065H24.9704H24.9343H24.8982H24.8621H24.826H24.789H24.7529H24.7168H24.6807H24.6446H24.6067H24.5706H24.5345H24.4984H24.472H24.4623C24.45 3.76606 24.4394 3.76606 24.4262 3.76606C24.4121 3.76606 24.4033 3.76606 24.3901 3.76606C24.3778 3.76606 24.3672 3.76694 24.354 3.76782L24.3179 3.7687C24.3056 3.7687 24.295 3.7687 24.2818 3.76958C24.2677 3.76958 24.2571 3.77134 24.2439 3.77134C24.2334 3.77222 24.221 3.7731 24.2078 3.77399L24.1717 3.77575L24.1356 3.78103C24.1233 3.78191 24.1127 3.78279 24.0995 3.78455C24.0872 3.78543 24.0749 3.78719 24.0616 3.78807L24.0255 3.7916C24.015 3.79248 24.0026 3.79424 23.9894 3.796C23.9771 3.79776 23.9665 3.79864 23.9533 3.8004C23.941 3.80216 23.9304 3.80392 23.9172 3.80568C23.9049 3.80657 23.8943 3.80921 23.8794 3.81097L23.8433 3.81713C23.8309 3.81889 23.8204 3.82065 23.8072 3.82242C23.7948 3.82506 23.7843 3.8277 23.7719 3.82946C23.7587 3.83122 23.7482 3.83386 23.7358 3.8365L23.6997 3.84355L23.6636 3.85147C23.6504 3.85411 23.6399 3.85764 23.6275 3.8594C23.6143 3.86204 23.6038 3.86468 23.5914 3.8682C23.5782 3.87173 23.5659 3.87437 23.5553 3.87701L23.5192 3.88669C23.506 3.88934 23.4937 3.89286 23.4814 3.89638C23.4682 3.8999 23.4576 3.90254 23.4453 3.90695C23.4338 3.91047 23.4215 3.91399 23.4092 3.91751C23.396 3.92104 23.3854 3.92456 23.3731 3.92808C23.3599 3.9316 23.3493 3.93512 23.337 3.93953L23.2991 3.95097C23.2876 3.95538 23.2753 3.9589 23.263 3.9633C23.2498 3.9677 23.2392 3.97123 23.2269 3.97651C23.2137 3.98003 23.2031 3.98532 23.1908 3.98884C23.1776 3.99324 23.1679 3.99764 23.1547 4.00205L23.1186 4.01613L23.0807 4.03022C23.0693 4.03463 23.0578 4.03991 23.0446 4.04519C23.0314 4.04959 23.0217 4.05488 23.0085 4.06016C22.9953 4.06544 22.9856 4.07073 22.9724 4.07601C22.9592 4.08129 22.9495 4.08658 22.9363 4.09186C22.9231 4.09714 22.9134 4.10331 22.9002 4.10859C22.887 4.11387 22.8773 4.12004 22.8641 4.1262L22.828 4.14381C22.8148 4.14998 22.8051 4.15614 22.7919 4.1623C22.7787 4.16847 22.769 4.17463 22.7558 4.1808C22.7426 4.18696 22.7329 4.19312 22.7179 4.19929C22.7065 4.20545 22.695 4.21249 22.6818 4.21866C22.6686 4.22482 22.6589 4.23187 22.6457 4.23803C22.6325 4.24419 22.6228 4.25212 22.6096 4.25828C22.5964 4.26533 22.5867 4.27237 22.5735 4.27942C22.5603 4.28646 22.5506 4.2935 22.5374 4.30055C22.5242 4.30759 22.5145 4.31552 22.5013 4.32256L22.4652 4.34546C22.4529 4.35338 22.4406 4.36131 22.4274 4.36923L22.3904 4.39212L22.3543 4.41678C22.3419 4.4247 22.3305 4.43351 22.3182 4.44232L22.2821 4.46785C22.2697 4.47666 22.2583 4.48546 22.246 4.49427C22.2336 4.50307 22.2222 4.51188 22.2099 4.52068L22.1738 4.54886L22.1377 4.57704C22.1253 4.58496 22.1139 4.59641 22.1016 4.60522C22.0892 4.6149 22.0769 4.62371 22.0655 4.63515C22.054 4.6466 22.0417 4.65629 22.0294 4.66685C22.017 4.67742 22.0056 4.68799 21.9915 4.69855C21.9792 4.70912 21.9695 4.71969 21.9554 4.73025C21.9431 4.7417 21.9316 4.75227 21.9211 4.76371C21.907 4.77516 21.8955 4.78573 21.8832 4.79717C21.8709 4.80862 21.8594 4.82007 21.8471 4.83239C21.8348 4.84384 21.8233 4.85617 21.811 4.86762C21.7969 4.87994 21.7872 4.89227 21.7749 4.9046C21.7608 4.91781 21.7511 4.93013 21.7388 4.94246C21.7265 4.95567 21.715 4.968 21.7027 4.98121C21.6886 4.99441 21.6771 5.0085 21.6666 5.02171C21.6525 5.03492 21.641 5.04813 21.6287 5.06222C21.6164 5.0763 21.6049 5.09039 21.5926 5.10536C21.5803 5.12033 21.5688 5.13442 21.5565 5.14851C21.5442 5.16348 21.5327 5.17845 21.5204 5.19342C21.5081 5.20927 21.4966 5.22512 21.4843 5.24097C21.472 5.25681 21.4605 5.27266 21.4482 5.28851C21.4359 5.30612 21.4244 5.32197 21.4121 5.33871C21.3998 5.35544 21.3892 5.37305 21.376 5.39066C21.3637 5.40827 21.3531 5.42676 21.3399 5.44437C21.3258 5.46286 21.3152 5.48135 21.3038 5.49984C21.2897 5.51922 21.2791 5.53859 21.2677 5.55796C21.2536 5.57821 21.243 5.59846 21.2298 5.61784C21.2175 5.63897 21.2069 5.6601 21.1937 5.68124C21.1814 5.70237 21.17 5.72438 21.1567 5.74728C21.1435 5.77017 21.133 5.79306 21.1198 5.81596C21.1057 5.84061 21.0969 5.86439 21.0837 5.88904C21.0696 5.91458 21.059 5.94011 21.0476 5.96653C21.0335 5.99383 21.0247 6.022 21.0115 6.0493C20.9974 6.07836 20.9868 6.1083 20.9754 6.13824C20.9613 6.16993 20.9507 6.20251 20.9393 6.23421C20.9252 6.26944 20.9146 6.30466 20.9031 6.33988C20.8891 6.37774 20.8785 6.41737 20.8653 6.45611C20.853 6.49926 20.8424 6.54416 20.8292 6.58819C20.8151 6.64014 20.8045 6.69298 20.7931 6.74581C20.7411 6.99236 20.7156 7.24772 20.7156 7.50924V11.3977H20.7931H20.8292H20.8653H20.9031H20.9393H20.9754H21.0115H21.0476H21.0837H21.1198H21.1559H21.192H21.2281H21.2659H21.302H21.3381H21.3742H21.4103H21.4464H21.4825H21.5186H21.5547H21.5908H21.627H21.6648H21.7009H21.737H21.7731H21.8092H21.8453H21.8814H21.9193H21.9536H21.9897H22.0276H22.0637H22.0998H22.1359H22.172H22.2081H22.2442H22.2803H22.3164H22.3525H22.3886H22.4247H22.4626H22.4987H22.5348H22.5709H22.607H22.6431H22.6792H22.7153H22.7532H22.7893H22.8254H22.8615H22.8976H22.9337H22.9698H23.0059H23.042H23.0781H23.1159H23.152H23.1881H23.2243H23.2692H23.3053H23.3414H23.3775H23.4153H23.4514H23.4875H23.5236H23.5597H23.5958H23.6319H23.668H23.7059H23.742H23.7781H23.8142H23.8503H23.8864H23.9225H23.9586H23.9965H24.0326H24.0687H24.1048H24.1409H24.177H24.2157H24.2518H24.2879H24.324H24.3601H24.3962H24.4324H24.4702H24.5063H24.5424H24.5785H24.6146H24.6507H24.6868H24.7229H24.759H24.7951H24.8312H24.8673H24.9034H24.9395H24.9756H25.0117H25.0478H25.084H25.1201H25.1562H25.1923H25.2284H25.2645H25.3006H25.3384H25.3745H25.4106H25.4476H25.4837H25.5198H25.5577H25.5938H25.6299H25.666H25.7021H25.7382H25.7743H25.8104H25.8465H25.8826H25.9187H25.9566H25.9927H26.0288H26.0464H26.0658H26.1019L26.1371 11.3986L26.1732 11.3995L26.2102 11.4003L26.2454 11.4021L26.2815 11.4039L26.3176 11.4056L26.3555 11.4074L26.3916 11.4091L26.4136 11.4109L26.4277 11.4118L26.4638 11.4136L26.4999 11.4162L26.536 11.4188L26.5721 11.4215L26.6082 11.4259L26.6443 11.4294L26.6804 11.4338L26.7182 11.4382L26.7543 11.4426L26.7904 11.447C26.8019 11.4488 26.8133 11.4505 26.8265 11.4532L26.8626 11.4593C26.8759 11.4611 26.8855 11.4637 26.8987 11.4664C26.912 11.4681 26.9216 11.4717 26.9348 11.4734L26.9709 11.4805C26.9842 11.4831 26.9956 11.4866 27.0088 11.4884C27.022 11.491 27.0317 11.4946 27.0449 11.4972L27.081 11.5069C27.0942 11.5095 27.1039 11.5131 27.1171 11.5157C27.1303 11.5192 27.14 11.5227 27.1532 11.5263C27.1664 11.5298 27.1779 11.5333 27.1893 11.5377C27.2025 11.5412 27.2122 11.5448 27.2254 11.5483C27.2386 11.5527 27.2483 11.5562 27.2615 11.5606C27.2747 11.5641 27.2844 11.5685 27.2994 11.5729C27.3108 11.5764 27.3223 11.5817 27.3355 11.5861C27.3487 11.5905 27.3584 11.5949 27.3716 11.5993C27.3839 11.6046 27.3945 11.609 27.4077 11.6143C27.4209 11.6196 27.4324 11.624 27.4438 11.6302C27.4561 11.6354 27.4667 11.6398 27.4817 11.6451C27.494 11.6513 27.5046 11.6566 27.5178 11.6619C27.5301 11.6671 27.5407 11.6742 27.5539 11.6795C27.5644 11.6848 27.5768 11.6909 27.59 11.698C27.6023 11.7041 27.6129 11.7103 27.6261 11.7165C27.6384 11.7226 27.649 11.7297 27.6622 11.7358C27.6745 11.7429 27.6851 11.7499 27.6983 11.757C27.7106 11.764 27.7229 11.7719 27.7344 11.779C27.7467 11.7869 27.7573 11.7939 27.7705 11.8019C27.7828 11.8098 27.7951 11.8177 27.8066 11.8256C27.8189 11.8336 27.8295 11.8424 27.8444 11.8512C27.855 11.86 27.8673 11.8688 27.8805 11.8776C27.8929 11.8873 27.9034 11.8961 27.9166 11.9067C27.929 11.9155 27.9395 11.926 27.9519 11.9366C27.9651 11.9463 27.9756 11.9568 27.988 11.9683C28.0012 11.9789 28.0117 11.9903 28.0241 12.0017C28.0373 12.0132 28.0478 12.0246 28.0602 12.037C28.0734 12.0502 28.084 12.0625 28.0963 12.0748C28.1095 12.0889 28.1218 12.1013 28.1341 12.1153C28.1474 12.1294 28.1579 12.1444 28.1702 12.1585C28.1835 12.1743 28.194 12.1893 28.2063 12.2052C28.2196 12.2228 28.2319 12.2386 28.2424 12.2562C28.2557 12.2747 28.2662 12.2932 28.2786 12.3117C28.2918 12.332 28.3041 12.3522 28.3147 12.3733C28.3279 12.3962 28.3402 12.42 28.3508 12.4438C28.3657 12.4702 28.3763 12.4975 28.3869 12.5257C28.4018 12.5583 28.4124 12.5908 28.4247 12.6243C28.4379 12.6657 28.4503 12.7088 28.4608 12.7529C28.4776 12.8233 28.4899 12.8964 28.4969 12.9712C28.5022 13.0293 28.5066 13.0901 28.5066 13.1526C28.5066 13.2107 28.5022 13.2688 28.4969 13.327C28.4899 13.4 28.4784 13.4714 28.4608 13.5409C28.4503 13.5841 28.4397 13.6272 28.4247 13.6695C28.4124 13.703 28.4018 13.7355 28.3869 13.7681C28.3763 13.7954 28.3657 13.8236 28.3508 13.8509C28.3402 13.8755 28.3279 13.8993 28.3147 13.9231C28.3041 13.9442 28.2918 13.9654 28.2786 13.9865C28.2662 14.0059 28.2557 14.0244 28.2424 14.0437C28.2319 14.0622 28.2196 14.0798 28.2063 14.0966C28.194 14.1133 28.1835 14.1291 28.1702 14.145C28.1579 14.16 28.1474 14.1749 28.1341 14.1899C28.1218 14.204 28.1112 14.2181 28.0963 14.2313C28.0857 14.2445 28.0734 14.2577 28.0602 14.2709C28.0478 14.2832 28.0373 14.2956 28.0241 14.3079C28.0117 14.3193 28.0012 14.3308 27.988 14.3431C27.9756 14.3546 27.9651 14.3651 27.9519 14.3757C27.9395 14.3863 27.929 14.3968 27.9166 14.4083C27.9034 14.4171 27.8929 14.4268 27.8805 14.4364C27.8673 14.4461 27.8568 14.4549 27.8444 14.4646C27.8312 14.4734 27.8207 14.4822 27.8066 14.4902C27.7951 14.4998 27.7828 14.5078 27.7705 14.5157C27.7573 14.5227 27.7467 14.5315 27.7344 14.5386C27.7229 14.5465 27.7106 14.5536 27.6983 14.5615C27.6851 14.5685 27.6745 14.5756 27.6622 14.5817C27.649 14.5888 27.6384 14.5958 27.6261 14.602C27.6129 14.609 27.6023 14.6152 27.59 14.6205C27.5768 14.6266 27.5662 14.6337 27.5539 14.639C27.5407 14.646 27.5301 14.6522 27.5178 14.6575C27.5046 14.6645 27.494 14.6698 27.4817 14.676C27.4685 14.6812 27.4588 14.6865 27.4438 14.6918C27.4324 14.6971 27.4209 14.7024 27.4077 14.7076C27.3945 14.7129 27.3848 14.7182 27.3716 14.7235C27.3584 14.7279 27.3487 14.7341 27.3355 14.7376C27.3223 14.7429 27.3126 14.7464 27.2994 14.7517C27.2862 14.7561 27.2747 14.7596 27.2615 14.764C27.2483 14.7675 27.2386 14.7728 27.2254 14.7763C27.2122 14.7799 27.2025 14.7834 27.1893 14.7887C27.1779 14.7922 27.1664 14.7957 27.1532 14.7992C27.14 14.8027 27.1303 14.8063 27.1171 14.8098C27.1039 14.8133 27.0942 14.8168 27.081 14.8204C27.0678 14.8221 27.0581 14.8256 27.0449 14.8292C27.0317 14.8318 27.022 14.8344 27.0088 14.8371L26.9709 14.8459C26.9595 14.8494 26.9481 14.8512 26.9348 14.8547L26.8987 14.8617C26.8855 14.8635 26.8759 14.8653 26.8626 14.8679L26.8265 14.8741L26.7931 14.8794V14.9225L26.8274 14.926L26.8635 14.9278L26.8996 14.9313L26.9357 14.9348L26.9718 14.9384L27.0097 14.9436L27.0458 14.948C27.0599 14.9498 27.0696 14.9516 27.0819 14.9533L27.118 14.9595C27.1321 14.9612 27.1418 14.963 27.1541 14.9665L27.1902 14.9718L27.2263 14.9797C27.2404 14.9824 27.2501 14.9841 27.2624 14.9868C27.2765 14.9894 27.2862 14.9912 27.3003 14.9947C27.3117 14.9982 27.3223 15 27.3364 15.0035C27.3487 15.0053 27.3601 15.0088 27.3725 15.0123C27.3848 15.0141 27.3963 15.0176 27.4086 15.0211C27.4218 15.0246 27.4324 15.0282 27.4447 15.0308C27.457 15.0352 27.4685 15.037 27.4825 15.0423L27.5186 15.0528C27.5292 15.0563 27.5407 15.0599 27.5547 15.0643C27.5653 15.0678 27.5768 15.0722 27.5908 15.0757C27.6032 15.081 27.6146 15.0845 27.627 15.088C27.6393 15.0924 27.6507 15.0977 27.6631 15.1013C27.6754 15.1057 27.6868 15.1109 27.6992 15.1145C27.7115 15.1197 27.7229 15.1233 27.7353 15.1294C27.7476 15.1347 27.759 15.1391 27.7714 15.1444C27.7837 15.1497 27.7951 15.155 27.8075 15.1602C27.8198 15.1655 27.8312 15.1708 27.8453 15.1761C27.8559 15.1814 27.8673 15.1867 27.8814 15.1937C27.8938 15.199 27.9034 15.2052 27.9175 15.2113C27.9299 15.2175 27.9413 15.2236 27.9536 15.2298C27.966 15.2351 27.9756 15.2421 27.9897 15.2483C28.0021 15.2545 28.0135 15.2615 28.0241 15.2677C28.0382 15.2747 28.0478 15.2809 28.0619 15.287C28.0743 15.295 28.0857 15.302 28.098 15.3082C28.1104 15.3143 28.1218 15.3231 28.1341 15.3302C28.1482 15.3372 28.1579 15.346 28.1702 15.3522C28.1843 15.3601 28.1958 15.3698 28.2081 15.376C28.2204 15.3848 28.2319 15.3936 28.2442 15.4015C28.2565 15.4094 28.268 15.4191 28.2803 15.4279C28.2926 15.4367 28.3041 15.4464 28.3164 15.4543C28.3287 15.4658 28.3402 15.4728 28.3525 15.4852C28.3648 15.494 28.3763 15.5037 28.3886 15.516C28.4009 15.5266 28.4124 15.5362 28.4247 15.5468C28.437 15.5591 28.4485 15.5706 28.4608 15.5811C28.4749 15.5952 28.4864 15.6049 28.4987 15.6172C28.511 15.6313 28.5225 15.6428 28.5348 15.6569C28.5489 15.671 28.5586 15.6842 28.5709 15.6983C28.5832 15.7123 28.5947 15.7273 28.607 15.7414C28.6211 15.7581 28.6308 15.774 28.6431 15.7907C28.6572 15.8074 28.6677 15.8224 28.6792 15.8409C28.6933 15.8594 28.7039 15.8796 28.7153 15.8964C28.7294 15.9149 28.74 15.9369 28.7514 15.9563C28.7655 15.9783 28.7761 16.0029 28.7893 16.0249C28.8016 16.0522 28.8122 16.0787 28.8254 16.1059C28.8395 16.135 28.85 16.1658 28.8615 16.1984C28.8756 16.2363 28.8861 16.2759 28.8976 16.3173C28.9134 16.3754 28.924 16.4379 28.9337 16.4995C28.9442 16.5753 28.9495 16.6545 28.9495 16.7338C28.9495 16.8174 28.9442 16.8984 28.9337 16.9742C28.924 17.0393 28.9134 17.1027 28.8976 17.1635C28.8861 17.2049 28.8756 17.2462 28.8615 17.2876C28.85 17.3202 28.8395 17.3528 28.8254 17.3836C28.8122 17.4109 28.8034 17.4382 28.7893 17.4664C28.7769 17.4902 28.7655 17.5139 28.7514 17.5368C28.74 17.5588 28.7294 17.58 28.7153 17.6002C28.7039 17.6187 28.6933 17.6398 28.6792 17.6583C28.6677 17.676 28.6572 17.6927 28.6431 17.7103C28.6308 17.7279 28.6211 17.7429 28.607 17.7605C28.5947 17.7772 28.585 17.7913 28.5709 17.808C28.5586 17.8221 28.5471 17.8344 28.5348 17.8494C28.5225 17.8644 28.511 17.8758 28.4987 17.889C28.4864 17.904 28.4749 17.9137 28.4608 17.9269C28.4485 17.9401 28.4388 17.9498 28.4247 17.963C28.4124 17.9745 28.4027 17.9841 28.3886 17.9956C28.3763 18.0062 28.3648 18.0167 28.3525 18.0282C28.3402 18.0387 28.3287 18.0475 28.3164 18.0563C28.3041 18.0678 28.2926 18.0748 28.2803 18.0854C28.268 18.096 28.2565 18.1039 28.2442 18.1127C28.2319 18.1233 28.2204 18.1312 28.2081 18.14C28.1958 18.1488 28.1843 18.1576 28.1702 18.1638C28.1597 18.1726 28.1482 18.1814 28.1341 18.1867C28.1218 18.1946 28.1121 18.2034 28.098 18.2078C28.0857 18.2157 28.0743 18.2245 28.0619 18.2298C28.0496 18.2369 28.0382 18.2439 28.0241 18.2501C28.0135 18.2571 28.0021 18.2642 27.9897 18.2686C27.9756 18.2756 27.966 18.2826 27.9536 18.2879C27.9413 18.2932 27.9299 18.3011 27.9175 18.3064C27.9034 18.3135 27.8938 18.3205 27.8814 18.3249C27.8673 18.3302 27.8577 18.3372 27.8453 18.3425C27.8312 18.3478 27.8215 18.3531 27.8075 18.3593C27.7951 18.3645 27.7837 18.3698 27.7714 18.376C27.759 18.3813 27.7476 18.3865 27.7353 18.3918C27.7229 18.3971 27.7115 18.4024 27.6992 18.4077C27.6868 18.413 27.6754 18.4165 27.6631 18.4218C27.6507 18.4253 27.6393 18.4315 27.627 18.435C27.6146 18.4403 27.6032 18.4438 27.5908 18.4482C27.5785 18.4517 27.5671 18.457 27.5547 18.4605L27.5186 18.4658C27.5046 18.4693 27.4949 18.4728 27.4825 18.4764C27.4685 18.4799 27.4588 18.4852 27.4447 18.4869C27.4324 18.4905 27.4218 18.494 27.4086 18.4984C27.3963 18.5019 27.3866 18.5037 27.3725 18.5072C27.3601 18.5107 27.3487 18.5125 27.3364 18.5169C27.3223 18.5204 27.3126 18.5221 27.3003 18.5257L27.2624 18.5327C27.2501 18.5345 27.2404 18.5398 27.2263 18.5415C27.214 18.5433 27.2043 18.545 27.1902 18.5486L27.1541 18.5538L27.118 18.5609C27.1057 18.5627 27.096 18.5644 27.0819 18.5662C27.0696 18.5679 27.0599 18.5697 27.0458 18.5715C27.0335 18.5732 27.022 18.5759 27.0097 18.5776L26.9718 18.5811C26.9595 18.5829 26.9498 18.5847 26.9357 18.5847C26.9234 18.5864 26.9137 18.5882 26.8996 18.5882L26.8635 18.5873L26.8274 18.5908L26.7913 18.5926L26.7552 18.5944L26.705 18.5996C26.6927 18.6014 26.6821 18.6014 26.6672 18.6014C26.6548 18.6014 26.6443 18.6014 26.6311 18.6032H26.595H26.5589H26.5412H26.5236H26.4875H26.4514H26.4153H26.3792H26.3431H26.307H26.2709H26.2348H26.1987H26.1609H26.1248H26.0886H26.0525H26.0182H25.9821H25.946H25.9099H25.8738H25.8377H25.8016H25.7655H25.7276H25.6924H25.6563H25.6202H25.5841H25.548H25.5101H25.474H25.4379H25.4018H25.3657H25.3314H25.2935H25.2592H25.2231H25.1852H25.1491H25.113H25.0769H25.0408H25.0065H24.9704H24.9343H24.8982H24.8621H24.826H24.789H24.7529H24.7168H24.6807H24.6446H24.6067H24.5706H24.5345H24.4984H24.4623H24.4262H24.3901H24.354H24.3179H24.2818H24.2457H24.2096H24.1717H24.1356H24.0995H24.0634H24.0273H23.9912H23.9577H23.9216H23.8855H23.8494H23.8133H23.7772H23.7411H23.705H23.6672H23.6311H23.5967H23.5606H23.5245H23.4884H23.4523H23.4162H23.3783H23.3414H23.3053H23.2709H23.2331H23.197H23.1609H23.1247H23.0886H23.0525H23.0164H22.9803H22.9442H22.9081H22.872H22.8377H22.8016H22.7655H22.7267H22.6915H22.6554H22.6193H22.585H22.5471H22.511H22.4749H22.4379H22.4009H22.3631H22.327H22.2909H22.2565H22.2204H22.1843H22.1482H22.1121H22.076H22.0399H22.0038H21.9677H21.9316H21.8955H21.8594H21.8233H21.7872H21.7511H21.715H21.6789H21.641H21.6049H21.5697H21.5354H21.4993H21.4632H21.4271H21.391H21.3549H21.3188H21.2827H21.2448H21.2105H21.1744H21.1383H21.1004H21.0643H21.0282H20.9921H20.956H20.919H20.8829H20.8486H20.8107H20.7341V26.2374H20.8116H20.8494H20.8855H20.9216H20.9577H20.9938H21.0299H21.066H21.1021H21.14H21.1761H21.2122H21.2483H21.2844H21.3205H21.3566H21.3927H21.4306H21.4667H21.5028H21.5389H21.575H21.6111H21.6472H21.6833H21.7194H21.7555H21.7916H21.8277H21.8656H21.9017H21.9378H21.9739H22.01H22.0478H22.084H22.1192H22.1553H22.1914H22.2275H22.2636H22.2997H22.3358H22.3719H22.408H22.4441H22.482H22.5181H22.5542H22.5903H22.6264H22.6625H22.6986H22.7347H22.7725H22.8086H22.8447H22.8808H22.9169H22.953H22.9891H23.0252H23.0614H23.0975H23.1353H23.1714H23.2075H23.2436H23.2692H23.3053H23.3414H23.3775H23.4153H23.4514H23.4875H23.5236H23.5597H23.5958H23.6319H23.668H23.7059H23.742H23.7781H23.8142H23.8503H23.8864H23.9225H23.9586H23.9965H24.0326H24.0687H24.1048H24.1409H24.177H24.2157H24.2518H24.2879H24.324H24.3601H24.3962H24.4324H24.4702H24.5063H24.5424H24.5785H24.6146H24.6507H24.6868H24.7229H24.759H24.7951H24.8312H24.8673H24.9034H24.9395H24.9756H25.0117H25.0478H25.084H25.1201H25.1562H25.1923H25.2284H25.2645H25.3006H25.3384H25.3745H25.4106H25.4476H25.4837H25.5198H25.5577H25.5938H25.6299H25.666H25.7021H25.7382H25.7743H25.8104H25.8465H25.8826H25.9187H25.9566H25.9927H26.0288H26.0658H26.1019H26.138H26.1732H26.2102H26.2383H26.2454H26.2815C26.2947 26.2374 26.3053 26.2374 26.3176 26.2374L26.3537 26.2357H26.3898C26.403 26.2357 26.4153 26.2357 26.4277 26.2339C26.4391 26.2339 26.4514 26.2339 26.4638 26.2322L26.4999 26.2304C26.5131 26.2304 26.5236 26.2286 26.536 26.2286C26.5492 26.2269 26.5597 26.2269 26.5721 26.2251C26.5853 26.2234 26.5976 26.2234 26.6082 26.2198C26.6214 26.2198 26.6311 26.2181 26.6443 26.2181C26.6575 26.2163 26.6672 26.2145 26.6804 26.2128C26.6936 26.2128 26.7033 26.211 26.7182 26.2093C26.7297 26.2075 26.7411 26.2057 26.7543 26.2057L26.7904 26.1987L26.8265 26.1934L26.8626 26.1881C26.8759 26.1864 26.8855 26.1846 26.8987 26.182C26.912 26.1802 26.9216 26.1784 26.9348 26.1749L26.9709 26.1679L27.0088 26.16C27.022 26.1564 27.0317 26.1547 27.0449 26.1511C27.0581 26.1494 27.0678 26.1459 27.081 26.1423L27.1171 26.1335L27.1532 26.1247L27.1893 26.1142C27.2025 26.1124 27.2122 26.1089 27.2254 26.1045C27.2386 26.101 27.2483 26.0974 27.2615 26.0939C27.2747 26.0895 27.2844 26.0877 27.2994 26.0825L27.3355 26.0719C27.3487 26.0684 27.3584 26.0649 27.3716 26.0613L27.4077 26.049C27.4209 26.0437 27.4306 26.0402 27.4438 26.0367C27.4561 26.0323 27.4667 26.027 27.4817 26.0235C27.4949 26.0182 27.5046 26.0138 27.5178 26.0085L27.5539 25.9962C27.5644 25.9909 27.5768 25.9856 27.59 25.9803C27.6023 25.9768 27.6129 25.9715 27.6261 25.9662C27.6384 25.961 27.649 25.9557 27.6622 25.9495C27.6745 25.946 27.6851 25.9398 27.6983 25.9345C27.7106 25.9293 27.7212 25.924 27.7344 25.9178C27.7467 25.9116 27.7573 25.9064 27.7705 25.9011L27.8066 25.8835L27.8444 25.865C27.855 25.8597 27.8673 25.8544 27.8805 25.8491C27.8929 25.8421 27.9034 25.835 27.9166 25.8306C27.929 25.8236 27.9395 25.8183 27.9528 25.8121C27.9651 25.806 27.9756 25.798 27.988 25.7936C28.0012 25.7857 28.0117 25.7804 28.0241 25.7752C28.0373 25.7672 28.0478 25.7602 28.0602 25.7567C28.0734 25.7496 28.084 25.7426 28.0963 25.7364C28.1095 25.7302 28.1218 25.7223 28.1341 25.7162L28.1702 25.6968C28.1835 25.6897 28.194 25.6801 28.2063 25.6757C28.2196 25.6686 28.2301 25.6598 28.2424 25.6536C28.2557 25.6466 28.2662 25.6378 28.2786 25.6316C28.2918 25.6228 28.3023 25.6158 28.3147 25.6079C28.3279 25.6008 28.3384 25.592 28.3508 25.585C28.364 25.5779 28.3745 25.5682 28.3869 25.5603C28.4001 25.5524 28.4106 25.5436 28.4247 25.5365C28.4362 25.5277 28.4485 25.518 28.4608 25.511C28.474 25.5022 28.4846 25.4925 28.4969 25.4855C28.5101 25.4749 28.5207 25.467 28.533 25.4564C28.5462 25.4476 28.5568 25.4379 28.5691 25.4291C28.5823 25.4185 28.5947 25.4106 28.607 25.4009C28.6202 25.3895 28.6299 25.3816 28.6431 25.3719C28.6545 25.3613 28.666 25.3525 28.6792 25.3419C28.6924 25.3305 28.703 25.3217 28.7153 25.3111C28.7285 25.2997 28.7391 25.2909 28.7514 25.2785C28.7646 25.268 28.7734 25.2583 28.7875 25.246C28.8007 25.2336 28.8113 25.2239 28.8236 25.2116C28.8368 25.1993 28.8474 25.1896 28.8597 25.1773C28.8729 25.1649 28.8835 25.1535 28.8958 25.1429C28.909 25.1288 28.9196 25.1174 28.9319 25.1051C28.9451 25.0927 28.9557 25.0813 28.968 25.069C28.9812 25.0549 28.9918 25.0434 29.0059 25.0311C29.0173 25.0153 29.0279 25.0038 29.042 24.9915C29.0552 24.9756 29.0658 24.9642 29.0781 24.9483C29.0913 24.9342 29.1019 24.921 29.1142 24.9069C29.1274 24.892 29.138 24.8779 29.1503 24.8638C29.1635 24.8471 29.1741 24.833 29.1864 24.818C29.1987 24.8013 29.2102 24.7881 29.2225 24.7713C29.2348 24.7546 29.2463 24.7388 29.2586 24.722C29.2709 24.7044 29.2824 24.6895 29.2965 24.6718C29.3088 24.6542 29.3185 24.6375 29.3326 24.6199C29.3449 24.6023 29.3546 24.5855 29.3687 24.5662C29.381 24.5477 29.3907 24.5301 29.4048 24.5116C29.4171 24.4931 29.4285 24.4737 29.4409 24.4552C29.4532 24.435 29.4646 24.4156 29.477 24.3954C29.4893 24.376 29.499 24.354 29.5131 24.3346C29.5254 24.3135 29.5351 24.2906 29.5492 24.2694C29.5615 24.2483 29.5729 24.2245 29.5853 24.2016C29.5976 24.1779 29.609 24.1523 29.6214 24.1294C29.6337 24.1039 29.6451 24.0784 29.6575 24.0537C29.6716 24.0264 29.6813 23.9991 29.6936 23.9718C29.7059 23.9436 29.7174 23.9146 29.7314 23.8829C29.7438 23.8521 29.7535 23.8221 29.7667 23.7913C29.7799 23.757 29.7913 23.7235 29.8019 23.6892C29.816 23.6531 29.8274 23.6134 29.838 23.5747C29.8521 23.5333 29.8635 23.4902 29.8741 23.4461C29.8882 23.3959 29.8996 23.3475 29.9102 23.2964C29.926 23.2357 29.9357 23.1705 29.9481 23.1089C29.9639 23.0155 29.9753 22.9196 29.9842 22.8236C29.9947 22.7135 30 22.6035 30 22.4916V3.76166H29.9842Z" fill="#A5A5A5"/>
<path d="M25.7364 16.2122C25.7258 16.169 25.717 16.1294 25.7002 16.088C25.6897 16.0607 25.6782 16.0316 25.6641 16.0035C25.6518 15.9814 25.643 15.9568 25.628 15.9348C25.6157 15.9163 25.6069 15.8969 25.5919 15.8784C25.5796 15.8608 25.5682 15.8441 25.5558 15.8282C25.5435 15.8141 25.5347 15.7992 25.5197 15.7851C25.5074 15.771 25.4968 15.7578 25.4836 15.7455C25.4713 15.7331 25.4607 15.7217 25.4458 15.7111C25.4334 15.6988 25.4229 15.6909 25.4097 15.6785C25.3973 15.6697 25.3868 15.6601 25.3736 15.6512C25.3612 15.6424 25.3507 15.6336 25.3375 15.6257C25.3251 15.6187 25.3146 15.6081 25.3014 15.6028C25.289 15.5949 25.2785 15.5878 25.2653 15.5834C25.2512 15.5755 25.2424 15.5685 25.2292 15.565C25.2151 15.5597 25.2063 15.5526 25.1913 15.5473C25.179 15.5421 25.1684 15.5359 25.1552 15.5306C25.1429 15.5253 25.1323 15.5192 25.1191 15.5156C25.1068 15.5104 25.0962 15.5068 25.083 15.5016C25.0707 15.4998 25.0601 15.4945 25.0469 15.491C25.0346 15.4875 25.024 15.4857 25.0108 15.4822L24.9949 15.4787C24.9879 15.4769 24.9808 15.4751 24.9747 15.4751C24.9641 15.4734 24.9518 15.4716 24.9386 15.4699C24.9263 15.4681 24.9157 15.4663 24.9025 15.4637C24.8884 15.4637 24.8796 15.4619 24.8664 15.4619C24.854 15.4602 24.8435 15.4584 24.8303 15.4584C24.8179 15.4566 24.8056 15.4566 24.7942 15.4549C24.7801 15.4549 24.7695 15.4549 24.7581 15.4531H24.751H24.722H24.6859H24.6445H24.6066H24.5705H24.5344H24.4983H24.4622H24.4261H24.39H24.3539H24.3178H24.2835H24.2456H24.2095H24.1734H24.1373H24.1021H24.066H24.0299H23.9938H23.9577H23.9216H23.8855H23.8494H23.8133H23.7771H23.741H23.7032H23.6671H23.631H23.5966H23.5605H23.5244H23.4883H23.4522H23.4161H23.38H23.3439H23.3061H23.2708H23.2347H23.1986H23.1625H23.1247H23.0886H23.0525H23.0164H22.9803H22.9442H22.9098H22.8737H22.8376H22.8015H22.7654H22.7267H22.6914H22.6553H22.6192H22.5849H22.5664V17.4335H22.5849H22.6228H22.6589H22.695H22.7311H22.7672H22.8033H22.8411H22.8772H22.9133H22.9494H22.9855H23.0216H23.0595H23.0956H23.1317H23.1678H23.2039H23.24H23.2708H23.3069H23.343H23.3791H23.4152H23.4513H23.4875H23.5236H23.5614H23.5975H23.6336H23.6697H23.7058H23.7419H23.778H23.8141H23.8502H23.8872H23.9251H23.9612H23.9973H24.0334H24.0695H24.1056H24.1417H24.1778H24.2139H24.25H24.2879H24.324H24.3601H24.3962H24.4314H24.4675H24.5036H24.5397H24.5758H24.6119H24.6498H24.6859H24.722H24.7387H24.7581C24.7695 17.4335 24.7801 17.4308 24.7942 17.4308C24.8056 17.4291 24.8179 17.4291 24.8303 17.4273C24.8435 17.4273 24.854 17.4255 24.8664 17.4255C24.8796 17.4238 24.8884 17.4238 24.9025 17.422C24.9157 17.4203 24.9263 17.4185 24.9386 17.4167C24.9518 17.415 24.9641 17.4132 24.9747 17.4114C24.9826 17.4097 24.9897 17.4079 24.9949 17.4062L25.0108 17.4026C25.024 17.4009 25.0328 17.3974 25.0469 17.3938C25.0601 17.3903 25.0707 17.3868 25.083 17.3833C25.0962 17.3797 25.1068 17.3736 25.1191 17.3701C25.1323 17.3648 25.1429 17.3613 25.1552 17.3551C25.1684 17.3498 25.179 17.3445 25.1913 17.3392C25.2045 17.3322 25.2151 17.3269 25.2292 17.3208C25.2424 17.3137 25.2512 17.3084 25.2653 17.3023C25.2767 17.2952 25.289 17.2882 25.3014 17.282C25.3146 17.275 25.3251 17.2662 25.3375 17.2591C25.3507 17.2521 25.3612 17.2424 25.3736 17.2345C25.3868 17.2248 25.3973 17.216 25.4097 17.2072C25.4229 17.1966 25.4334 17.1869 25.4458 17.1763C25.4581 17.164 25.4695 17.1526 25.4836 17.1402C25.4968 17.1262 25.5074 17.1147 25.5197 17.1024C25.5329 17.0865 25.5435 17.0733 25.5558 17.0575C25.5682 17.0407 25.5796 17.0249 25.5919 17.0064C25.6069 16.9879 25.6157 16.9685 25.628 16.9509C25.643 16.9289 25.6518 16.906 25.6641 16.884C25.6782 16.8549 25.6897 16.8276 25.7002 16.7959C25.717 16.7563 25.7258 16.7167 25.7364 16.6727C25.7548 16.6005 25.7619 16.523 25.7619 16.442C25.7619 16.361 25.7531 16.2826 25.7364 16.2122Z" fill="#A5A5A5"/>
<path d="M25.4872 13.2231C25.4784 13.1808 25.4679 13.1394 25.4511 13.1007C25.4388 13.0716 25.43 13.0443 25.415 13.017C25.4045 12.995 25.3921 12.973 25.3789 12.9519C25.3666 12.9334 25.356 12.9149 25.3428 12.8973C25.3305 12.8814 25.3199 12.8664 25.3067 12.8506C25.2944 12.8365 25.2838 12.8233 25.2706 12.8101C25.2583 12.7969 25.2477 12.7854 25.2345 12.774C25.2222 12.7625 25.2116 12.752 25.1984 12.7414C25.1861 12.7308 25.1755 12.7211 25.1605 12.7123C25.15 12.7035 25.1377 12.6939 25.1244 12.6859C25.1121 12.6771 25.1016 12.6692 25.0883 12.6622C25.076 12.6551 25.0654 12.6481 25.0522 12.641C25.0399 12.6349 25.0293 12.6278 25.0161 12.6225C25.0038 12.6155 24.9932 12.6102 24.98 12.6049C24.9677 12.5996 24.9571 12.5935 24.9439 12.5891C24.9316 12.5847 24.9193 12.5803 24.9078 12.5759C24.8955 12.5715 24.8849 12.5671 24.8717 12.5635C24.8576 12.56 24.8471 12.5565 24.8339 12.5538C24.8215 12.5503 24.811 12.5468 24.7978 12.545C24.7872 12.5415 24.7749 12.5389 24.7625 12.5371L24.7529 12.5354C24.7458 12.5345 24.7388 12.5327 24.7264 12.5318C24.715 12.531 24.7044 12.5292 24.6903 12.5283C24.6771 12.5265 24.6666 12.5257 24.6542 12.5248C24.641 12.5239 24.6305 12.523 24.6181 12.5221C24.6049 12.5213 24.5944 12.5204 24.582 12.5204H24.56H24.5459H24.5098H24.4737H24.4359H24.3998H24.3637H24.3276H24.2906H24.2527H24.2166H24.1805H24.1444H24.1083H24.0704H24.0343H23.9982H23.9621H23.926H23.8899H23.8521H23.816H23.7799H23.7438H23.7077H23.6716H23.6337H23.5976H23.5615H23.5254H23.4893H23.4532H23.4153H23.3792H23.3431H23.307H23.2709H23.2383H23.2022H23.1661H23.1283H23.0922H23.0578H23.0217H22.9839H22.9469H22.9108H22.8747H22.8386H22.8025H22.7664H22.7285H22.6924H22.6563H22.6202H22.5841H22.5656V14.3431H22.5841H22.585V14.3457H22.6211H22.6572H22.6933H22.7294H22.7655H22.8016H22.8377H22.8738H22.9099H22.9442H22.9803H23.0164H23.0525H23.0886H23.1247H23.1626H23.1987H23.2348H23.2709H23.3052H23.3414H23.3783H23.4144H23.4523H23.4884H23.5245H23.5606H23.5967H23.6275H23.6654H23.7015H23.7376H23.7737H23.8098H23.8459H23.8838H23.9199H23.956H23.9921H24.0273H24.0634H24.1013H24.1374H24.1735H24.2096H24.2457H24.2835H24.3276H24.3637H24.3998H24.4359H24.4737H24.5098H24.5398H24.5459C24.5565 14.3457 24.5688 14.3457 24.582 14.3457C24.5944 14.3457 24.6049 14.344 24.6181 14.344C24.6305 14.3422 24.641 14.3422 24.6542 14.3405C24.6666 14.3405 24.6771 14.3387 24.6903 14.3369C24.7044 14.3369 24.715 14.3352 24.7264 14.3334C24.7352 14.3317 24.7458 14.3308 24.7529 14.3299L24.7625 14.3281C24.7749 14.3255 24.7872 14.3237 24.7978 14.3211C24.811 14.3184 24.8215 14.3158 24.8339 14.3123C24.8471 14.3088 24.8594 14.3052 24.8717 14.3017C24.8849 14.2982 24.8955 14.2938 24.9078 14.2903C24.921 14.2859 24.9316 14.2806 24.9439 14.2762C24.9571 14.2709 24.9677 14.2665 24.98 14.2612C24.9932 14.2559 25.0038 14.2489 25.0161 14.2436C25.0293 14.2383 25.0399 14.2313 25.0522 14.2251C25.0654 14.2189 25.076 14.211 25.0883 14.204C25.1016 14.1969 25.1121 14.189 25.1244 14.1811C25.1377 14.1732 25.15 14.1635 25.1605 14.1547C25.1755 14.145 25.1861 14.1362 25.1984 14.1256C25.2116 14.1142 25.2222 14.1045 25.2345 14.093C25.2477 14.0816 25.2583 14.0693 25.2706 14.0569C25.2838 14.0446 25.2944 14.0305 25.3067 14.0164C25.3199 14.0015 25.3305 13.9856 25.3428 13.9698C25.356 13.9521 25.3666 13.9337 25.3789 13.9152C25.3921 13.894 25.4045 13.872 25.415 13.85C25.43 13.8236 25.4406 13.7954 25.4511 13.7672C25.4679 13.7276 25.4784 13.6862 25.4872 13.644C25.5004 13.5779 25.5092 13.5066 25.5092 13.4335C25.5092 13.3595 25.504 13.2891 25.4872 13.2231Z" fill="#A5A5A5"/>
</svg>
