<svg width="30" height="30" viewBox="0 0 30 30" fill="none" xmlns="http://www.w3.org/2000/svg">
<g clip-path="url(#clip0_2_142)">
<path d="M26.1428 3.21043L15.3028 0.0421461L15.2799 0.0358179C15.097 -0.0123462 14.9038 -0.0123462 14.721 0.0358179L14.7096 0.0388062L3.85797 3.21043C3.05741 3.42782 2.49936 4.15649 2.49936 4.98723V20.4429C2.49936 22.4723 3.61938 24.3018 5.42431 25.225L12.5227 29.3971L12.5721 29.424C13.3323 29.8078 14.1663 29.9996 15.0003 29.9996C15.8343 29.9996 16.6683 29.8078 17.4285 29.424L17.4536 29.4114L24.5764 25.225C26.3813 24.3019 27.5013 22.4723 27.5013 20.443V4.98729C27.5014 4.15661 26.9434 3.42782 26.1428 3.21043ZM25.7435 20.4429C25.7435 21.8147 24.9828 23.0509 23.7581 23.669L23.733 23.6817L16.6128 27.8667C15.601 28.3682 14.3997 28.3681 13.3879 27.8667L6.29191 23.696L6.24257 23.669C5.0179 23.051 4.25718 21.8147 4.25718 20.4429V4.98729C4.25718 4.94944 4.28272 4.91634 4.31928 4.90673L15.0004 1.7852L25.6591 4.90051L25.6814 4.90673C25.718 4.91634 25.7435 4.94944 25.7435 4.98729V20.4429Z" fill="#A5A5A5"/>
<path d="M12.7259 13.7615C12.6041 13.5232 12.4525 13.3378 12.2711 13.2056C12.0896 13.0734 11.8913 12.9516 11.6762 12.8401C11.4611 12.7288 11.2628 12.638 11.0814 12.568C10.8999 12.498 10.7482 12.4138 10.6265 12.3153C10.5047 12.2169 10.4438 12.108 10.4438 11.9887C10.4438 11.8592 10.5085 11.749 10.6381 11.6582C10.7676 11.5676 10.962 11.5222 11.2213 11.5222C11.4649 11.5222 11.6878 11.5715 11.89 11.6699C12.0923 11.7685 12.2244 11.8176 12.2866 11.8176C12.4369 11.8176 12.5549 11.7439 12.6404 11.5964C12.7259 11.4489 12.7687 11.3068 12.7687 11.1698C12.7687 11.0257 12.7104 10.9028 12.5938 10.8013C12.4771 10.6998 12.3267 10.6265 12.1428 10.5809C11.9587 10.5355 11.7928 10.5048 11.6451 10.4888C11.4974 10.4728 11.3561 10.4647 11.2214 10.4647C10.6719 10.4647 10.2027 10.6008 9.81389 10.873C9.42506 11.1451 9.23071 11.5559 9.23071 12.1054C9.23071 12.4425 9.3149 12.7327 9.48342 12.9763C9.65182 13.2201 9.85789 13.4079 10.1016 13.54C10.3452 13.6722 10.5876 13.7915 10.8286 13.8977C11.0697 14.004 11.2744 14.122 11.4429 14.2515C11.6113 14.3812 11.6956 14.5314 11.6956 14.7025C11.6956 14.8736 11.6205 15.0018 11.4702 15.0873C11.3198 15.1728 11.1436 15.2156 10.9414 15.2156C10.7807 15.2156 10.6277 15.1843 10.4826 15.1213C10.3374 15.0585 10.2247 14.9889 10.1444 14.9124C10.0639 14.8359 9.97584 14.7664 9.87998 14.7034C9.78401 14.6406 9.69723 14.6092 9.61948 14.6092C9.4795 14.6092 9.35633 14.6818 9.2501 14.8269C9.14381 14.9721 9.09072 15.1173 9.09072 15.2624C9.09072 15.5216 9.27735 15.7549 9.65059 15.9621C10.0238 16.1696 10.4618 16.2732 10.9647 16.2732C11.5452 16.2732 12.0146 16.1244 12.3722 15.8266C12.7299 15.5288 12.9088 15.1126 12.9088 14.578C12.9087 14.2722 12.8477 14.0001 12.7259 13.7615Z" fill="#A5A5A5"/>
<path d="M16.8695 13.7615C16.7476 13.5232 16.5961 13.3378 16.4147 13.2056C16.2331 13.0734 16.0349 12.9516 15.8198 12.8401C15.6047 12.7288 15.4064 12.638 15.225 12.568C15.0434 12.498 14.8918 12.4138 14.7701 12.3153C14.6482 12.2169 14.5873 12.108 14.5873 11.9887C14.5873 11.8592 14.6521 11.749 14.7817 11.6582C14.9112 11.5676 15.1056 11.5222 15.3649 11.5222C15.6085 11.5222 15.8314 11.5715 16.0336 11.6699C16.2358 11.7685 16.368 11.8176 16.4302 11.8176C16.5805 11.8176 16.6985 11.7439 16.784 11.5964C16.8695 11.4489 16.9123 11.3068 16.9123 11.1698C16.9123 11.0257 16.8539 10.9028 16.7373 10.8013C16.6207 10.6998 16.4703 10.6265 16.2863 10.5809C16.1023 10.5355 15.9364 10.5048 15.7887 10.4888C15.641 10.4728 15.4997 10.4647 15.3649 10.4647C14.8155 10.4647 14.3464 10.6008 13.9575 10.873C13.5686 11.1451 13.3743 11.5559 13.3743 12.1054C13.3743 12.4425 13.4585 12.7327 13.627 12.9763C13.7954 13.2201 14.0015 13.4079 14.2452 13.54C14.4888 13.6722 14.7311 13.7915 14.9722 13.8977C15.2132 14.004 15.418 14.122 15.5865 14.2515C15.7549 14.3812 15.8392 14.5314 15.8392 14.7025C15.8392 14.8736 15.764 15.0018 15.6137 15.0873C15.4633 15.1728 15.2871 15.2156 15.085 15.2156C14.9243 15.2156 14.7713 15.1843 14.6262 15.1213C14.481 15.0585 14.3683 14.9889 14.2879 14.9124C14.2075 14.8359 14.1194 14.7664 14.0236 14.7034C13.9276 14.6406 13.8408 14.6092 13.763 14.6092C13.6231 14.6092 13.4999 14.6818 13.3937 14.8269C13.2874 14.9721 13.2343 15.1173 13.2343 15.2624C13.2343 15.5216 13.4209 15.7549 13.7942 15.9621C14.1674 16.1696 14.6054 16.2732 15.1083 16.2732C15.6888 16.2732 16.1581 16.1244 16.5158 15.8266C16.8734 15.5288 17.0523 15.1126 17.0523 14.578C17.0523 14.2722 16.9913 14.0001 16.8695 13.7615Z" fill="#A5A5A5"/>
<path d="M20.8949 15.293C20.8326 15.1893 20.7472 15.1375 20.6383 15.1375H18.8654V10.8763C18.8654 10.7571 18.8057 10.6663 18.6865 10.604C18.5672 10.5418 18.4247 10.5107 18.2588 10.5107C18.0929 10.5107 17.9504 10.5418 17.8312 10.604C17.7119 10.6663 17.6523 10.757 17.6523 10.8763V15.8217C17.6523 15.941 17.7041 16.033 17.8079 16.0977C17.9115 16.1626 18.0359 16.1949 18.1811 16.1949H20.6383C20.7472 16.1949 20.8327 16.1431 20.8949 16.0394C20.9571 15.9358 20.9882 15.8114 20.9882 15.6662C20.9882 15.5211 20.9571 15.3967 20.8949 15.293Z" fill="#A5A5A5"/>
<path d="M20.4896 17.3633H9.50879C9.0234 17.3633 8.62988 17.7568 8.62988 18.2422C8.62988 18.7276 9.0234 19.1211 9.50879 19.1211H20.4896C20.975 19.1211 21.3685 18.7276 21.3685 18.2422C21.3685 17.7568 20.975 17.3633 20.4896 17.3633Z" fill="#A5A5A5"/>
</g>
<defs>
<clipPath id="clip0_2_142">
<rect width="30" height="30" fill="white"/>
</clipPath>
</defs>
</svg>
