<svg width="28" height="30" viewBox="0 0 28 30" fill="none" xmlns="http://www.w3.org/2000/svg">
<path d="M26.737 4.3087L14.5655 0.0954437C14.1979 -0.0318146 13.7924 -0.0318146 13.4252 0.0954437L1.52497 4.21463C1.15304 4.34349 0.838101 4.60075 0.637829 4.9395C0.437786 5.27824 0.364086 5.67833 0.430462 6.06606L3.19352 22.1844C3.23243 22.4112 3.3146 22.6247 3.43797 22.8191C3.56111 23.0134 3.71904 23.1789 3.90786 23.3112L13.0277 29.6951C13.3126 29.8945 13.6472 30 13.9954 30C14.3433 30 14.6779 29.8945 14.9626 29.6951L24.2225 23.2132C24.51 23.012 24.7091 22.6982 24.7682 22.3524L27.6088 5.7827C27.7184 5.14137 27.3518 4.52133 26.737 4.3087ZM23.0646 21.8761L13.9954 28.2243L4.92593 21.8761L2.17866 5.85045L13.9954 1.7601L25.8119 5.85045L23.0646 21.8761Z" fill="#A5A5A5"/>
<path d="M6.98893 14.0506C7.06996 14.0946 7.16654 14.1165 7.27938 14.1165C7.39176 14.1165 7.48858 14.0946 7.5696 14.0506C7.6504 14.0067 7.69091 13.9442 7.69091 13.8632V12.4326H8.74148V13.8632C8.74148 13.9442 8.78176 14.0067 8.86279 14.0506C8.94381 14.0946 9.0404 14.1165 9.15324 14.1165C9.26585 14.1165 9.36244 14.0946 9.44346 14.0506C9.52448 14.0067 9.56477 13.9442 9.56477 13.8632V10.5059C9.56477 10.4251 9.52448 10.3633 9.44346 10.3212C9.36244 10.2791 9.26585 10.2578 9.15324 10.2578C9.0404 10.2578 8.94381 10.2791 8.86279 10.3212C8.78176 10.3636 8.74148 10.4251 8.74148 10.5059V11.7993H7.69091V10.5059C7.69091 10.4251 7.6504 10.3633 7.5696 10.3212C7.48858 10.2791 7.39176 10.2578 7.27938 10.2578C7.16654 10.2578 7.06996 10.2791 6.98893 10.3212C6.90791 10.3636 6.86762 10.4251 6.86762 10.5059V13.8632C6.86762 13.9442 6.90791 14.0067 6.98893 14.0506Z" fill="#A5A5A5"/>
<path d="M10.1382 10.9758H10.8665V13.8616C10.8665 13.943 10.907 14.006 10.988 14.0502C11.0688 14.0946 11.1656 14.1165 11.2783 14.1165C11.3909 14.1165 11.4877 14.0946 11.5687 14.0502C11.6495 14.006 11.69 13.943 11.69 13.8616V10.9758H12.4185C12.4957 10.9758 12.5566 10.9408 12.6005 10.8708C12.6444 10.8005 12.6667 10.7142 12.6667 10.6117C12.6667 10.516 12.6454 10.4331 12.6033 10.3631C12.5609 10.2931 12.4993 10.2578 12.4185 10.2578H10.138C10.0569 10.2578 9.99537 10.2931 9.95326 10.3631C9.91114 10.4331 9.89009 10.516 9.89009 10.6117C9.89009 10.7142 9.91183 10.8005 9.956 10.8708C9.99995 10.9408 10.0606 10.9758 10.1382 10.9758Z" fill="#A5A5A5"/>
<path d="M12.8146 10.3629C12.7725 10.4331 12.7514 10.516 12.7514 10.6117C12.7514 10.7142 12.7732 10.8005 12.8173 10.8705C12.8613 10.9408 12.9219 10.9758 12.9995 10.9758H13.7278V13.8613C13.7278 13.943 13.7683 14.006 13.8491 14.0502C13.9302 14.0943 14.027 14.1165 14.1396 14.1165C14.2522 14.1165 14.349 14.0943 14.4298 14.0502C14.5108 14.006 14.5513 13.943 14.5513 13.8613V10.9758H15.2799C15.357 10.9758 15.4179 10.9408 15.4618 10.8705C15.5058 10.8005 15.528 10.7142 15.528 10.6117C15.528 10.516 15.5067 10.4331 15.4646 10.3629C15.4222 10.2928 15.3607 10.2578 15.2799 10.2578H12.9993C12.9183 10.2578 12.8569 10.2928 12.8146 10.3629Z" fill="#A5A5A5"/>
<path d="M15.9765 14.0506C16.0575 14.0946 16.1541 14.1165 16.2667 14.1165C16.3793 14.1165 16.4761 14.0946 16.5571 14.0506C16.6379 14.0067 16.6784 13.9442 16.6784 13.8632V12.7231H17.201C17.5917 12.7231 17.9057 12.6238 18.1433 12.4249C18.3809 12.226 18.4997 11.9172 18.4997 11.4984V11.472C18.4997 11.0532 18.3861 10.7462 18.1591 10.5508C17.932 10.3555 17.6304 10.2578 17.2539 10.2578H16.1612C16.0696 10.2578 15.9957 10.2825 15.9394 10.3317C15.8831 10.3812 15.8549 10.4391 15.8549 10.5059V13.8632C15.8552 13.9442 15.8954 14.0067 15.9765 14.0506ZM16.6787 10.9758H17.2012C17.5178 10.9758 17.6761 11.1518 17.6761 11.5036V11.5618C17.6761 11.9135 17.518 12.0896 17.2012 12.0896H16.6787V10.9758Z" fill="#A5A5A5"/>
<path d="M20.2875 13.3657C20.1854 13.4236 20.0657 13.4527 19.9286 13.4527C19.8195 13.4527 19.7156 13.4314 19.6171 13.3886C19.5185 13.3461 19.442 13.2989 19.3876 13.2469C19.3329 13.195 19.2731 13.1478 19.2079 13.105C19.1429 13.0622 19.0841 13.041 19.0312 13.041C18.9362 13.041 18.8524 13.0902 18.7803 13.1888C18.7082 13.2875 18.6723 13.3859 18.6723 13.4845C18.6723 13.6605 18.7989 13.8187 19.0523 13.9595C19.3056 14.1002 19.6029 14.1707 19.9444 14.1707C20.3386 14.1707 20.6569 14.0695 20.8998 13.8674C21.1426 13.6653 21.2642 13.3829 21.2642 13.0199C21.2642 12.8123 21.2227 12.6276 21.1401 12.4658C21.0573 12.304 20.9543 12.1781 20.8311 12.0881C20.708 11.9986 20.5734 11.9158 20.4274 11.8402C20.2814 11.7645 20.1468 11.7029 20.0234 11.6553C19.9003 11.6079 19.7975 11.5507 19.7146 11.4839C19.632 11.417 19.5906 11.3431 19.5906 11.2621C19.5906 11.1742 19.6345 11.0993 19.7227 11.0378C19.8105 10.9762 19.9426 10.9455 20.1186 10.9455C20.2839 10.9455 20.4352 10.979 20.5725 11.0458C20.7098 11.1126 20.7995 11.146 20.8417 11.146C20.9437 11.146 21.0238 11.0959 21.082 10.9959C21.1401 10.8956 21.169 10.7993 21.169 10.7061C21.169 10.6084 21.1294 10.5251 21.0502 10.456C20.971 10.3871 20.8689 10.3374 20.7442 10.3065C20.619 10.2756 20.5066 10.2548 20.4063 10.2438C20.3058 10.233 20.2099 10.2275 20.1186 10.2275C19.7455 10.2275 19.4269 10.32 19.163 10.5047C18.8991 10.6894 18.7671 10.9684 18.7671 11.3415C18.7671 11.5702 18.8243 11.7672 18.9387 11.9327C19.0529 12.098 19.193 12.2257 19.3585 12.3154C19.5238 12.4051 19.6883 12.4861 19.852 12.5582C20.0156 12.6303 20.1546 12.7104 20.269 12.7983C20.3832 12.8862 20.4404 12.9883 20.4404 13.1046C20.4407 13.2206 20.3896 13.3076 20.2875 13.3657Z" fill="#A5A5A5"/>
<path d="M20.4635 15.0039H7.75526C7.26934 15.0039 6.87544 15.3978 6.87544 15.8837C6.87544 16.3696 7.26934 16.7636 7.75526 16.7636H20.4635C20.9494 16.7636 21.3433 16.3696 21.3433 15.8837C21.3433 15.3978 20.9494 15.0039 20.4635 15.0039Z" fill="#A5A5A5"/>
</svg>
