<svg width="61" height="10" viewBox="0 0 61 10" fill="none" xmlns="http://www.w3.org/2000/svg">
<path fill-rule="evenodd" clip-rule="evenodd" d="M40.9252 6.62449L38.3592 0.218729H36.3087L40.3921 10H41.4021L45.5593 0.218729H43.5246L40.9252 6.62449ZM15.2498 3.87787C14.1235 3.46481 13.7927 3.19237 13.7927 2.67712C13.7927 2.07652 14.3819 1.62009 15.191 1.62009C15.7534 1.62009 16.2155 1.84902 16.7046 2.39245L17.6866 1.11792C16.8796 0.418308 15.914 0.0606127 14.859 0.0606127C13.1565 0.0606127 11.8579 1.2324 11.8579 2.79321C11.8579 4.10708 12.4626 4.77974 14.2254 5.40852C14.9601 5.66536 15.334 5.8365 15.5228 5.95164C15.8978 6.19434 16.0856 6.53789 16.0856 6.93838C16.0856 7.71112 15.4657 8.28361 14.6283 8.28361C13.7331 8.28361 13.0119 7.83988 12.5798 7.01164L11.3672 8.16875C12.232 9.42681 13.2705 9.98438 14.6987 9.98438C16.6493 9.98438 18.0175 8.69906 18.0175 6.85286C18.0175 5.33768 17.3849 4.6518 15.2498 3.87787ZM2.37921 8.13944C3.59198 8.13944 4.35806 7.90918 4.94781 7.3814C5.59693 6.80877 5.98745 5.89395 5.98745 4.97849C5.98745 4.06487 5.59693 3.17724 4.94781 2.60437C4.32791 2.04818 3.59198 1.83311 2.37921 1.83311H1.87547V8.13944H2.37921ZM0 0.217315H2.75519C5.79915 0.217315 7.92083 2.17786 7.92083 4.99222C7.92083 6.39575 7.27171 7.75268 6.17406 8.65299C5.25031 9.41315 4.19802 9.75391 2.74066 9.75391H0V0.217315ZM10.6611 9.75391H8.78418V0.217315H10.6611V9.75391ZM23.6885 9.96875C20.8303 9.96875 18.6094 7.79515 18.6094 4.99199C18.6094 2.2191 20.8891 0.00150967 23.7327 0.00150967C24.5403 0.00150967 25.2178 0.173065 26.0417 0.58732V2.77598C25.2613 2.01954 24.5837 1.70293 23.6885 1.70293C21.9278 1.70293 20.5437 3.14727 20.5437 4.97826C20.5437 6.90944 21.8854 8.26771 23.7757 8.26771C24.6267 8.26771 25.2913 7.96753 26.0417 7.22321V9.41293C25.1883 9.8113 24.4964 9.96875 23.6885 9.96875ZM51.7292 9.75391H46.4062V0.217315H51.7292V1.83311H48.2817V3.94984H51.6021V5.56522H48.2817V8.13944H51.7292V9.75391ZM55.3996 4.60785H54.8513V1.71944H55.4292C56.5982 1.71944 57.2336 2.20481 57.2336 3.13294C57.2336 4.09168 56.5982 4.60785 55.3996 4.60785ZM59.1652 3.03277C59.1652 1.2474 57.9242 0.217315 55.7597 0.217315H52.9766V9.75391H54.8513V5.92292H55.096L57.694 9.75391H60.0023L56.9731 5.73626C58.3867 5.45142 59.1652 4.49299 59.1652 3.03277ZM31.8772 9.9769C34.657 9.9769 36.9106 7.7435 36.9106 4.98845C36.9106 2.23341 34.657 0 31.8772 0C29.0973 0 26.8438 2.23341 26.8438 4.98845C26.8438 7.7435 29.0973 9.9769 31.8772 9.9769Z" fill="#A5A5A5"/>
</svg>
