<svg width="48" height="48" viewBox="0 0 48 48" fill="none" xmlns="http://www.w3.org/2000/svg">
<g clip-path="url(#clip0_2_69)">
<path d="M19.1527 16.8008L16.7217 31.0668H20.6097L23.0427 16.8008H19.1527Z" fill="#A5A5A5"/>
<path d="M13.4633 16.8145L9.65528 26.5435L9.24928 25.0745C8.49828 23.3045 6.36628 20.7625 3.86328 19.1605L7.34528 31.0575L11.4593 31.0505L17.5823 16.8115L13.4633 16.8145Z" fill="#A5A5A5"/>
<path d="M7.772 17.8348C7.546 16.9658 6.891 16.7068 6.078 16.6758H0.05L0 16.9598C4.691 18.0978 7.795 20.8398 9.083 24.1368L7.772 17.8348Z" fill="#A5A5A5"/>
<path d="M30.923 19.534C32.195 19.514 33.117 19.792 33.833 20.08L34.184 20.245L34.71 17.153C33.94 16.864 32.733 16.554 31.227 16.554C27.385 16.554 24.677 18.489 24.656 21.262C24.631 23.311 26.585 24.455 28.061 25.138C29.576 25.838 30.084 26.283 30.077 26.908C30.065 27.863 28.869 28.301 27.752 28.301C26.195 28.301 25.368 28.086 24.091 27.554L23.59 27.326L23.043 30.519C23.953 30.918 25.632 31.261 27.375 31.279C31.462 31.279 34.118 29.367 34.146 26.404C34.163 24.783 33.126 23.546 30.879 22.531C29.519 21.869 28.687 21.429 28.695 20.761C28.695 20.168 29.401 19.534 30.923 19.534Z" fill="#A5A5A5"/>
<path d="M44.688 16.8164H41.684C40.751 16.8164 40.057 17.0704 39.647 18.0004L33.874 31.0744H37.957C37.957 31.0744 38.623 29.3164 38.774 28.9314C39.221 28.9314 43.188 28.9374 43.753 28.9374C43.869 29.4354 44.227 31.0744 44.227 31.0744H47.834L44.688 16.8164ZM39.893 26.0114C40.213 25.1924 41.442 22.0244 41.442 22.0244C41.421 22.0634 41.759 21.1994 41.96 20.6624L42.222 21.8924C42.222 21.8924 42.967 25.2984 43.123 26.0114H39.893Z" fill="#A5A5A5"/>
</g>
<defs>
<clipPath id="clip0_2_69">
<rect width="47.834" height="47.834" fill="white"/>
</clipPath>
</defs>
</svg>
